<svg width="24" height="24" viewBox="0 0 24 24" fill="none" xmlns="http://www.w3.org/2000/svg">
<path d="M11.227 20.4306C11.1865 20.5929 11.0928 20.7369 10.961 20.8399C10.8292 20.9428 10.6668 20.9987 10.4995 20.9988C10.4363 20.9991 10.3734 20.9915 10.312 20.9763L7.31202 20.2263C7.2285 20.2053 7.14922 20.1701 7.07765 20.1222L4.82765 18.6222C4.66218 18.5118 4.54734 18.3402 4.5084 18.1451C4.46945 17.9501 4.5096 17.7475 4.61999 17.582C4.73039 17.4166 4.902 17.3017 5.09706 17.2628C5.29213 17.2238 5.49468 17.264 5.66015 17.3744L7.8014 18.8022L10.6758 19.5213C10.7718 19.5445 10.8623 19.5866 10.942 19.6449C11.0218 19.7033 11.0892 19.7769 11.1404 19.8614C11.1917 19.9459 11.2257 20.0397 11.2405 20.1374C11.2554 20.2351 11.2508 20.3347 11.227 20.4306ZM23.6667 11.3875C23.6052 11.5744 23.5072 11.7473 23.3785 11.8961C23.2498 12.045 23.0928 12.1669 22.9167 12.2547L20.6967 13.3647L15.533 18.5294C15.4413 18.6209 15.3275 18.6872 15.2027 18.7217C15.0778 18.7562 14.9461 18.7578 14.8205 18.7263L8.82046 17.2263C8.72922 17.2034 8.64305 17.1636 8.5664 17.1091L3.3614 13.3928L1.08515 12.2547C0.729402 12.0769 0.458845 11.765 0.332968 11.3877C0.207092 11.0105 0.236203 10.5986 0.4139 10.2428L2.74359 5.58439C2.92142 5.22864 3.23327 4.95808 3.61054 4.8322C3.98782 4.70633 4.39964 4.73544 4.75546 4.91314L6.82359 5.94439L11.7923 4.52501C11.9271 4.48645 12.07 4.48645 12.2048 4.52501L17.1736 5.94439L19.2417 4.91314C19.5975 4.73544 20.0094 4.70633 20.3866 4.8322C20.7639 4.95808 21.0758 5.22864 21.2536 5.58439L23.5833 10.2428C23.6721 10.4186 23.7253 10.6103 23.7396 10.8068C23.7539 11.0033 23.7291 11.2007 23.6667 11.3875ZM19.3373 12.6006L16.7864 7.49876H13.8033L9.74952 11.4363C10.9364 12.1947 12.7973 12.4038 14.467 10.7209C14.5974 10.5895 14.7718 10.5109 14.9567 10.5004C15.1415 10.4898 15.3238 10.548 15.4683 10.6638L18.6942 13.2484L19.3373 12.6006ZM1.75546 10.9131L3.4139 11.7428L5.74359 7.08439L4.08515 6.2547L1.75546 10.9131ZM17.6245 14.3106L15.0267 12.2303C13.1948 13.7303 10.8689 13.9281 8.9414 12.6991C8.7518 12.5785 8.59171 12.4168 8.47298 12.226C8.35424 12.0352 8.27989 11.8202 8.25541 11.5968C8.23093 11.3735 8.25695 11.1474 8.33155 10.9355C8.40615 10.7235 8.52742 10.531 8.6864 10.3722C8.68866 10.3695 8.69117 10.367 8.6939 10.3647L12.8995 6.28564L11.9995 6.02876L7.27265 7.3797L4.70671 12.5106L9.31921 15.8059L14.7698 17.1681L17.6245 14.3106ZM22.2408 10.9131L19.9139 6.2547L18.2555 7.08439L20.5851 11.7428L22.2408 10.9131Z" fill="#2E2E2E"/>
</svg>
