<svg width="24" height="24" viewBox="0 0 24 24" fill="none" xmlns="http://www.w3.org/2000/svg" aria-hidden="true">
  <path d="M17.6264 8.25C17.1892 8.24952 16.7589 8.35879 16.3749 8.56781C16.2601 8.21228 16.0707 7.88536 15.8193 7.6089C15.568 7.33244 15.2606 7.11281 14.9176 6.96469C14.5746 6.81657 14.2039 6.74338 13.8304 6.75001C13.4568 6.75664 13.089 6.84293 12.7514 7.00312V4.125C12.7514 3.42881 12.4749 2.76113 11.9826 2.26884C11.4903 1.77656 10.8226 1.5 10.1264 1.5C9.43026 1.5 8.76258 1.77656 8.27029 2.26884C7.77801 2.76113 7.50145 3.42881 7.50145 4.125V11.625L7.14332 11.0503C6.97016 10.7521 6.73996 10.4909 6.46584 10.2816C6.19173 10.0723 5.87908 9.91906 5.54575 9.83061C4.87255 9.65199 4.15597 9.7481 3.55364 10.0978C2.9513 10.4475 2.51257 11.0222 2.33394 11.6954C2.15531 12.3686 2.25142 13.0852 2.60114 13.6875L3.03895 14.4591C6.26489 20.1459 7.59989 22.5 12.0014 22.5C14.1887 22.4975 16.2857 21.6275 17.8323 20.0809C19.379 18.5343 20.249 16.4373 20.2514 14.25V10.875C20.2514 10.1788 19.9749 9.51113 19.4826 9.01884C18.9903 8.52656 18.3226 8.25 17.6264 8.25ZM18.7514 14.25C18.7495 16.0396 18.0377 17.7553 16.7722 19.0208C15.5068 20.2862 13.7911 20.998 12.0014 21C8.47364 21 7.51645 19.3125 4.34395 13.7175L3.90426 12.9422V12.9375C3.75497 12.6794 3.71426 12.3725 3.79108 12.0844C3.8679 11.7963 4.05597 11.5505 4.31395 11.4009C4.48483 11.302 4.67897 11.2502 4.87645 11.2509C5.07421 11.2506 5.26855 11.3025 5.43989 11.4012C5.61123 11.5 5.75351 11.6422 5.85239 11.8134C5.8562 11.8209 5.86059 11.8282 5.86551 11.835L7.61582 14.6475C7.70221 14.7854 7.83111 14.8915 7.98308 14.9497C8.13504 15.008 8.30183 15.0152 8.45826 14.9703C8.6147 14.9254 8.75229 14.8309 8.85027 14.701C8.94826 14.571 9.00132 14.4127 9.00145 14.25V4.125C9.00145 3.82663 9.11998 3.54048 9.33095 3.3295C9.54193 3.11853 9.82808 3 10.1264 3C10.4248 3 10.711 3.11853 10.9219 3.3295C11.1329 3.54048 11.2514 3.82663 11.2514 4.125V10.5C11.2514 10.6989 11.3305 10.8897 11.4711 11.0303C11.6118 11.171 11.8025 11.25 12.0014 11.25C12.2004 11.25 12.3911 11.171 12.5318 11.0303C12.6724 10.8897 12.7514 10.6989 12.7514 10.5V9.375C12.7514 9.07663 12.87 8.79048 13.081 8.5795C13.2919 8.36853 13.5781 8.25 13.8764 8.25C14.1748 8.25 14.461 8.36853 14.6719 8.5795C14.8829 8.79048 15.0014 9.07663 15.0014 9.375V11.25C15.0014 11.4489 15.0805 11.6397 15.2211 11.7803C15.3618 11.921 15.5525 12 15.7514 12C15.9504 12 16.1411 11.921 16.2818 11.7803C16.4224 11.6397 16.5014 11.4489 16.5014 11.25V10.875C16.5014 10.5766 16.62 10.2905 16.831 10.0795C17.0419 9.86853 17.3281 9.75 17.6264 9.75C17.9248 9.75 18.211 9.86853 18.4219 10.0795C18.6329 10.2905 18.7514 10.5766 18.7514 10.875V14.25Z" fill="white"/>
</svg>
