<svg width="24" height="24" viewBox="0 0 24 24" fill="none" xmlns="http://www.w3.org/2000/svg">
<path d="M12.0377 2.54004C7.09761 2.54004 3.07722 6.41236 3.07548 11.1713C3.07433 12.6932 3.48774 14.1785 4.27161 15.4868L3 19.9594L7.75142 18.7591C9.07309 19.4505 10.5427 19.8113 12.0343 19.8102H12.0377C16.9779 19.8102 20.9983 15.9372 21 11.1783C21.0012 8.86313 20.0699 6.6933 18.3773 5.07224C16.6853 3.44063 14.4352 2.54063 12.0377 2.54004ZM12.0377 18.3522H12.0348C10.6982 18.3522 9.38709 17.9062 8.24322 17.2523L7.97033 17.0967L5.15187 17.9085L5.90439 15.2609L5.72729 15.0897C4.4834 13.9552 3.8875 12.5279 3.88807 11.1713C3.88981 7.21539 7.432 3.99804 12.0407 3.99804C14.0299 3.99843 15.9001 4.74591 17.3072 6.10172C18.714 7.45752 19.488 9.26043 19.4868 11.1777C19.4851 15.1336 15.9435 18.3522 12.0372 18.3522H12.0377ZM16.1238 12.9783C15.8996 12.8709 14.7987 12.3489 14.5932 12.2763C14.3882 12.2049 14.2390 12.1677 14.0897 12.3837C13.9411 12.5997 13.5114 13.0857 13.3814 13.2291C13.2501 13.3731 13.1195 13.3905 12.8954 13.2831C12.6712 13.1751 11.9495 12.9475 11.0948 12.2124C10.4288 11.6411 9.97935 10.9350 9.84871 10.7184C9.71807 10.5030 9.83478 10.3863 9.94684 10.2789C10.0473 10.1831 10.1710 10.0275 10.2825 9.90145C10.3939 9.77545 10.4311 9.68545 10.5066 9.54145C10.5809 9.39804 10.5437 9.27145 10.4874 9.16404C10.4311 9.05545 9.984 7.99404 9.78145 7.56263C9.60528 7.14223 9.43065 7.19856 9.29303 7.19158C9.16239 7.18578 9.01374 7.18404 8.86335 7.18404C8.71529 7.18404 8.472 7.23804 8.26645 7.45404C8.06129 7.67004 7.48259 8.19145 7.48259 9.25289C7.48259 10.3149 8.28503 11.3403 8.39709 11.4843C8.50916 11.6277 9.97645 13.8069 12.2230 14.7417C12.7571 14.9629 13.1741 15.0959 13.4998 15.1957C14.0363 15.3602 14.5247 15.3363 14.9102 15.2811C15.3399 15.219 16.2353 14.7597 16.4211 14.2563C16.608 13.7529 16.608 13.3209 16.5522 13.2309C16.4977 13.1409 16.3479 13.0869 16.1238 12.9783Z" fill="white"/>
</svg>
