<svg width="24" height="24" viewBox="0 0 24 24" fill="none" xmlns="http://www.w3.org/2000/svg">
<path d="M20.25 3.75H3.75C3.35218 3.75 2.97064 3.90804 2.68934 4.18934C2.40804 4.47064 2.25 4.85218 2.25 5.25V18.75C2.25 19.1478 2.40804 19.5294 2.68934 19.8107C2.97064 20.092 3.35218 20.25 3.75 20.25H20.25C20.6478 20.25 21.0294 20.092 21.3107 19.8107C21.592 19.5294 21.75 19.1478 21.75 18.75V5.25C21.75 4.85218 21.592 4.47064 21.3107 4.18934C21.0294 3.90804 20.6478 3.75 20.25 3.75ZM9 11.25C9 10.6567 9.17595 10.0766 9.50559 9.58329C9.83524 9.08994 10.3038 8.70542 10.8519 8.47836C11.4001 8.2513 12.0033 8.19189 12.5853 8.30764C13.1672 8.4234 13.7018 8.70912 14.1213 9.12868C14.5409 9.54824 14.8266 10.0828 14.9424 10.6647C15.0581 11.2467 14.9987 11.8499 14.7716 12.398C14.5446 12.9462 14.1601 13.4148 13.6667 13.7444C13.1734 14.0741 12.5933 14.25 12 14.25C11.2044 14.25 10.4413 13.9339 9.87868 13.3713C9.31607 12.8087 9 12.0456 9 11.25ZM6.80344 18.75C7.32999 17.8377 8.08744 17.0801 8.99964 16.5533C9.91184 16.0266 10.9466 15.7493 12 15.7493C13.0534 15.7493 14.0882 16.0266 15.0004 16.5533C15.9126 17.0801 16.67 17.8377 17.1966 18.75H6.80344ZM20.25 18.75H18.8747C18.083 16.942 16.6117 15.5182 14.7787 14.7863C15.515 14.2083 16.0527 13.4151 16.3169 12.5172C16.5812 11.6193 16.5589 10.6613 16.2531 9.77666C15.9474 8.89201 15.3733 8.12473 14.611 7.58164C13.8487 7.03855 12.936 6.74668 12 6.74668C11.064 6.74668 10.1513 7.03855 9.38898 7.58164C8.62665 8.12473 8.05264 8.89201 7.74688 9.77666C7.44112 10.6613 7.41881 11.6193 7.68308 12.5172C7.94734 13.4151 8.48502 14.2083 9.22125 14.7863C7.3883 15.5182 5.91699 16.942 5.12531 18.75H3.75V5.25H20.25V18.75Z" fill="#FF4B49"/>
</svg>
