<svg width="269" height="269" viewBox="0 0 269 269" fill="none" xmlns="http://www.w3.org/2000/svg">
<rect width="269" height="269" rx="8" fill="white"/>
<path d="M100.165 125.793V128.589H105.204V143.64H108.132V128.589H113.131V125.793H100.165Z" fill="#2E2E2E"/>
<path d="M125.214 137.258C125.257 135.499 124.608 133.794 123.407 132.509C122.832 131.869 122.125 131.362 121.335 131.023C120.544 130.684 119.69 130.52 118.83 130.544C117.934 130.51 117.041 130.665 116.21 130.999C115.378 131.333 114.626 131.839 114.002 132.483C112.782 133.775 112.102 135.486 112.102 137.264C112.102 139.042 112.782 140.753 114.002 142.046C114.669 142.679 115.457 143.172 116.318 143.496C117.178 143.82 118.096 143.968 119.015 143.932C120.105 143.997 121.194 143.774 122.171 143.286C123.148 142.797 123.979 142.06 124.581 141.149L122.325 139.83C121.956 140.349 121.461 140.766 120.886 141.043C120.312 141.319 119.678 141.446 119.041 141.413C118.1 141.434 117.177 141.157 116.403 140.621C115.682 140.08 115.188 139.29 115.018 138.405H125.148C125.2 138.025 125.222 137.641 125.214 137.258ZM116.627 136.163L114.965 137.271C114.968 137.244 114.968 137.218 114.965 137.192C114.848 136.39 115.016 135.573 115.44 134.883C115.543 134.702 115.663 134.53 115.796 134.369C115.893 134.25 116.004 134.144 116.126 134.052L116.258 133.92C116.975 133.347 117.873 133.048 118.79 133.076C119.658 133.055 120.505 133.345 121.178 133.894C121.88 134.48 122.349 135.299 122.497 136.202L116.627 136.163Z" fill="#2E2E2E"/>
<path d="M183.159 137.258C183.202 135.499 182.554 133.794 181.352 132.509C180.777 131.869 180.07 131.362 179.28 131.023C178.49 130.684 177.635 130.52 176.775 130.544C175.88 130.51 174.987 130.665 174.155 130.999C173.323 131.333 172.571 131.839 171.948 132.483C170.727 133.775 170.047 135.486 170.047 137.264C170.047 139.042 170.727 140.753 171.948 142.046C172.615 142.679 173.402 143.172 174.263 143.496C175.124 143.82 176.041 143.968 176.96 143.932C178.05 143.997 179.139 143.774 180.116 143.286C181.093 142.797 181.924 142.06 182.526 141.149L180.271 139.83C179.901 140.349 179.406 140.766 178.832 141.043C178.258 141.319 177.623 141.446 176.986 141.413C176.046 141.434 175.122 141.157 174.348 140.621C173.609 140.075 173.105 139.269 172.937 138.366H183.067C183.126 137.999 183.156 137.629 183.159 137.258ZM174.573 136.163L172.911 137.271C172.913 137.244 172.913 137.218 172.911 137.192C172.793 136.39 172.962 135.573 173.385 134.883C173.486 134.716 173.601 134.557 173.728 134.408C173.825 134.29 173.936 134.183 174.058 134.092L174.19 133.96C174.907 133.387 175.805 133.087 176.723 133.116C177.59 133.095 178.437 133.385 179.11 133.934C179.788 134.53 180.232 135.348 180.363 136.242L174.573 136.163Z" fill="#FF4B49"/>
<path d="M136.913 139.274C136.624 139.872 136.165 140.372 135.594 140.712C134.979 141.061 134.282 141.238 133.576 141.226C133.052 141.239 132.531 141.143 132.045 140.946C131.56 140.748 131.12 140.453 130.753 140.079C130.386 139.702 130.098 139.256 129.906 138.767C129.713 138.278 129.62 137.755 129.632 137.23C129.62 136.704 129.713 136.182 129.906 135.692C130.098 135.203 130.386 134.757 130.753 134.381C131.389 133.776 132.202 133.39 133.072 133.279C133.943 133.167 134.826 133.336 135.594 133.761C136.169 134.096 136.628 134.597 136.913 135.198L139.274 133.879C138.758 132.877 137.96 132.047 136.979 131.492C135.684 130.757 134.187 130.461 132.71 130.649C131.233 130.837 129.857 131.498 128.788 132.534C128.163 133.154 127.673 133.895 127.346 134.711C127.019 135.528 126.864 136.403 126.888 137.282C126.893 138.46 127.207 139.615 127.799 140.632C128.39 141.65 129.238 142.495 130.258 143.082C131.278 143.67 132.434 143.979 133.611 143.98C134.788 143.981 135.945 143.673 136.966 143.086C137.967 142.524 138.786 141.686 139.327 140.672L136.913 139.274Z" fill="#2E2E2E"/>
<path d="M151.503 131.953C151.045 131.48 150.492 131.11 149.88 130.867C149.268 130.623 148.612 130.513 147.955 130.542C147.18 130.489 146.405 130.643 145.71 130.989C145.015 131.334 144.424 131.858 143.997 132.507V125.793H141.254V143.64H143.997V136.781C143.924 135.788 144.235 134.805 144.868 134.037C145.175 133.726 145.544 133.483 145.95 133.324C146.357 133.165 146.793 133.093 147.229 133.114C147.61 133.091 147.992 133.148 148.351 133.279C148.709 133.411 149.037 133.615 149.313 133.879C149.583 134.172 149.79 134.518 149.922 134.895C150.053 135.271 150.107 135.67 150.078 136.068V143.64H152.835V135.831C152.883 135.128 152.79 134.423 152.561 133.757C152.332 133.091 151.972 132.478 151.503 131.953Z" fill="#2E2E2E"/>
<path d="M165.272 136.675C166.311 136.266 167.202 135.553 167.831 134.631C168.477 133.722 168.819 132.632 168.807 131.518C168.807 130.002 168.206 128.548 167.135 127.474C166.064 126.401 164.611 125.796 163.095 125.793H155.973V143.64H158.888V137.15H162.357L166.116 143.64H169.321L165.272 136.675ZM163.095 134.485H158.888V128.537H163.095C163.468 128.534 163.837 128.61 164.178 128.76C164.519 128.91 164.824 129.131 165.074 129.407C165.601 129.983 165.894 130.736 165.894 131.518C165.894 132.299 165.601 133.052 165.074 133.628C164.823 133.902 164.517 134.12 164.176 134.268C163.835 134.416 163.467 134.49 163.095 134.485Z" fill="#FF4B49"/>
<path d="M195.519 130.871V132.679C195.015 131.979 194.345 131.418 193.568 131.044C192.792 130.671 191.934 130.498 191.074 130.542C190.232 130.532 189.397 130.699 188.625 131.033C187.852 131.367 187.158 131.86 186.589 132.481C185.392 133.775 184.728 135.473 184.728 137.236C184.728 138.999 185.392 140.697 186.589 141.991C187.158 142.611 187.852 143.105 188.625 143.439C189.397 143.773 190.232 143.94 191.074 143.93C191.937 143.972 192.796 143.795 193.573 143.417C194.35 143.039 195.019 142.472 195.519 141.767V143.64H198.263V130.911L195.519 130.871ZM194.371 140.105C193.598 140.843 192.571 141.254 191.503 141.254C190.434 141.254 189.407 140.843 188.634 140.105C188.257 139.718 187.961 139.259 187.764 138.757C187.567 138.254 187.472 137.716 187.486 137.176C187.472 136.642 187.567 136.111 187.764 135.615C187.962 135.118 188.257 134.667 188.634 134.288C189.399 133.535 190.429 133.112 191.503 133.112C192.576 133.112 193.606 133.535 194.371 134.288C194.748 134.667 195.043 135.118 195.241 135.615C195.438 136.111 195.533 136.642 195.519 137.176C195.545 137.726 195.457 138.275 195.259 138.788C195.062 139.301 194.759 139.768 194.371 140.158V140.105Z" fill="#FF4B49"/>
<path d="M201.428 125.027V143.639H204.185V125.027H201.428Z" fill="#FF4B49"/>
<path d="M214.5 133.523V130.885H211.334V128.524L208.591 126.77V130.885H206.256V133.523H208.591V139.683C208.508 140.317 208.586 140.962 208.816 141.559C209.047 142.155 209.423 142.685 209.91 143.099C211.315 143.794 212.916 143.99 214.447 143.653V141.173C213.863 141.206 213.277 141.206 212.693 141.173C212.307 141.185 211.931 141.054 211.638 140.804C211.506 140.648 211.407 140.467 211.346 140.273C211.285 140.078 211.263 139.873 211.281 139.67V133.563L214.5 133.523Z" fill="#FF4B49"/>
<path d="M93.7019 128.274C92.8966 126.229 91.6907 124.366 90.1552 122.794C88.6196 121.222 86.7853 119.973 84.7601 119.121C82.7349 118.268 80.5596 117.828 78.3622 117.828C76.1648 117.828 73.9894 118.267 71.9641 119.12C68.9136 120.4 66.3215 122.573 64.5278 125.353C62.7341 128.133 61.8226 131.39 61.913 134.697C61.9566 136.048 62.1065 137.393 62.3615 138.721L76.2906 130.2L87.0539 136.94L86.8957 129.263L84.1125 127.535V131.07L76.1982 126.111L65.7119 132.508C66.2384 129.463 67.8456 126.711 70.2383 124.756C72.631 122.802 75.6485 121.775 78.7368 121.867C81.8252 121.958 84.777 123.16 87.0502 125.252C89.3235 127.345 90.7656 130.187 91.1118 133.257C91.458 136.328 90.685 139.42 88.9347 141.966C87.1845 144.512 84.5745 146.341 81.584 147.118C78.5935 147.894 75.4233 147.566 72.6554 146.193C69.8875 144.82 67.7078 142.495 66.5165 139.644L54.5 146.859V150.816L64.96 144.221C66.9749 147.069 69.8433 149.203 73.1505 150.314C76.4577 151.425 80.0325 151.455 83.3582 150.401C86.684 149.347 89.5883 147.262 91.6516 144.449C93.7148 141.636 94.8302 138.239 94.8363 134.75C94.8908 132.538 94.5052 130.336 93.7019 128.274Z" fill="#FF4B49"/>
<path d="M78.0707 136.027H74.4697V139.628H78.0707V136.027Z" fill="#FF4B49"/>
</svg>
