<svg width="32" height="32" viewBox="0 0 32 32" fill="none" xmlns="http://www.w3.org/2000/svg">
<path d="M28 19.0008V26.0008C28 26.5312 27.7893 27.0399 27.4142 27.415C27.0391 27.7901 26.5304 28.0008 26 28.0008H6C5.46957 28.0008 4.96086 27.7901 4.58579 27.415C4.21071 27.0399 4 26.5312 4 26.0008V19.0008C4 18.7356 4.10536 18.4812 4.29289 18.2937C4.48043 18.1061 4.73478 18.0008 5 18.0008C5.26522 18.0008 5.51957 18.1061 5.70711 18.2937C5.89464 18.4812 6 18.7356 6 19.0008V26.0008H26V19.0008C26 18.7356 26.1054 18.4812 26.2929 18.2937C26.4804 18.1061 26.7348 18.0008 27 18.0008C27.2652 18.0008 27.5196 18.1061 27.7071 18.2937C27.8946 18.4812 28 18.7356 28 19.0008ZM11.7075 10.7083L15 7.41454V19.0008C15 19.266 15.1054 19.5204 15.2929 19.7079C15.4804 19.8954 15.7348 20.0008 16 20.0008C16.2652 20.0008 16.5196 19.8954 16.7071 19.7079C16.8946 19.5204 17 19.266 17 19.0008V7.41454L20.2925 10.7083C20.4801 10.8959 20.7346 11.0013 21 11.0013C21.2654 11.0013 21.5199 10.8959 21.7075 10.7083C21.8951 10.5206 22.0006 10.2662 22.0006 10.0008C22.0006 9.73542 21.8951 9.48093 21.7075 9.29329L16.7075 4.29329C16.6146 4.20031 16.5043 4.12655 16.3829 4.07623C16.2615 4.0259 16.1314 4 16 4C15.8686 4 15.7385 4.0259 15.6171 4.07623C15.4957 4.12655 15.3854 4.20031 15.2925 4.29329L10.2925 9.29329C10.1049 9.48093 9.99944 9.73542 9.99944 10.0008C9.99944 10.2662 10.1049 10.5206 10.2925 10.7083C10.4801 10.8959 10.7346 11.0013 11 11.0013C11.2654 11.0013 11.5199 10.8959 11.7075 10.7083Z" fill="white"/>
</svg>
