<svg width="18" height="18" viewBox="0 0 18 18" fill="none" xmlns="http://www.w3.org/2000/svg">
<path d="M12.0938 8.4375C12.0938 9.04939 11.9123 9.64753 11.5724 10.1563C11.2324 10.6651 10.7492 11.0616 10.1839 11.2958C9.61862 11.5299 8.99657 11.5912 8.39644 11.4718C7.79631 11.3524 7.24506 11.0578 6.81239 10.6251C6.37972 10.1924 6.08507 9.64119 5.9657 9.04106C5.84632 8.44093 5.90759 7.81888 6.14175 7.25357C6.37591 6.68826 6.77244 6.20509 7.2812 5.86514C7.78997 5.5252 8.38811 5.34375 9 5.34375C9.82051 5.34375 10.6074 5.6697 11.1876 6.24989C11.7678 6.83008 12.0938 7.61699 12.0938 8.4375ZM16.3125 3.9375V14.0625C16.3125 14.3609 16.194 14.647 15.983 14.858C15.772 15.069 15.4859 15.1875 15.1875 15.1875H2.8125C2.51413 15.1875 2.22798 15.069 2.017 14.858C1.80603 14.647 1.6875 14.3609 1.6875 14.0625V3.9375C1.6875 3.63913 1.80603 3.35298 2.017 3.142C2.22798 2.93103 2.51413 2.8125 2.8125 2.8125H15.1875C15.4859 2.8125 15.772 2.93103 15.983 3.142C16.194 3.35298 16.3125 3.63913 16.3125 3.9375ZM15.1875 14.0625V3.9375H2.8125V14.0625H3.84469C4.28178 13.0626 5.00026 12.2115 5.91258 11.6128C5.96379 11.5788 6.02472 11.5626 6.08605 11.5665C6.14738 11.5705 6.20574 11.5944 6.25219 11.6346C7.01597 12.2937 7.99118 12.6562 9 12.6562C10.0088 12.6562 10.984 12.2937 11.7478 11.6346C11.7943 11.5944 11.8526 11.5705 11.9139 11.5665C11.9753 11.5626 12.0362 11.5788 12.0874 11.6128C12.9997 12.2115 13.7182 13.0626 14.1553 14.0625H15.1875Z" fill="#161616"/>
</svg>
