<svg width="24" height="24" viewBox="0 0 24 24" fill="none" xmlns="http://www.w3.org/2000/svg">
<path fill-rule="evenodd" clip-rule="evenodd" d="M20.5686 5.41483C21.4016 5.64589 22.0601 6.32626 22.2837 7.18633C22.6937 8.75244 22.7061 12.0002 22.7061 12.0002C22.7061 12.0002 22.7061 15.2608 22.2963 16.8141C22.0727 17.6741 21.4142 18.3545 20.5812 18.5856C19.0886 19.0092 13.0434 19.0092 13.0434 19.0092C13.0434 19.0092 6.99824 19.0092 5.50564 18.5856C4.67264 18.3545 4.01414 17.6741 3.79054 16.8141C3.38074 15.248 3.38074 12.0002 3.38074 12.0002C3.38074 12.0002 3.38074 8.75244 3.77814 7.19917C4.00174 6.33909 4.66024 5.65873 5.49324 5.42767C6.98584 5.00404 13.031 4.99121 13.031 4.99121C13.031 4.99121 19.076 4.99121 20.5686 5.41483ZM16.1472 12.0002L10.8322 15.004V8.99635L16.1472 12.0002Z" fill="white"/>
</svg>
