<svg width="32" height="32" viewBox="0 0 32 32" fill="none" xmlns="http://www.w3.org/2000/svg">
  <rect width="32" height="32" rx="8" fill="#3F444D"/>
  <path d="M15.229 24.4306C15.1884 24.5929 15.0948 24.7369 14.963 24.8399C14.8312 24.9428 14.6687 24.9987 14.5015 24.9988C14.4383 24.9991 14.3753 24.9915 14.314 24.9763L11.314 24.2263C11.2305 24.2053 11.1512 24.1701 11.0796 24.1222L8.8296 22.6222C8.66413 22.5118 8.54929 22.3402 8.51035 22.1451C8.47141 21.9501 8.51155 21.7475 8.62195 21.582C8.73234 21.4166 8.90395 21.3017 9.09902 21.2628C9.29408 21.2238 9.49663 21.264 9.6621 21.3744L11.8034 22.8022L14.6777 23.5213C14.7738 23.5445 14.8643 23.5866 14.944 23.6449C15.0237 23.7033 15.0912 23.7769 15.1424 23.8614C15.1936 23.9459 15.2276 24.0397 15.2425 24.1374C15.2574 24.2351 15.2528 24.3347 15.229 24.4306ZM27.6687 15.3875C27.6071 15.5744 27.5092 15.7473 27.3804 15.8961C27.2517 16.045 27.0948 16.1669 26.9187 16.2547L24.6987 17.3647L23.2849 18.7794L19.5349 22.5294C19.4433 22.6209 19.3295 22.6872 19.2046 22.7217C19.0797 22.7562 18.9481 22.7578 18.8224 22.7263L12.8224 21.2263C12.7312 21.2034 12.645 21.1636 12.5684 21.1091L7.36335 17.3928L5.0871 16.2547C4.73136 16.0769 4.4608 15.765 4.33492 15.3877C4.20905 15.0105 4.23816 14.5986 4.41585 14.2428L6.74554 9.58439C6.92338 9.22864 7.23522 8.95808 7.6125 8.8322C7.98977 8.70633 8.4016 8.73544 8.75742 8.91314L10.8255 9.94439L15.7943 8.52501C15.9291 8.48645 16.072 8.48645 16.2068 8.52501L21.1755 9.94439L23.2437 8.91314C23.5995 8.73544 24.0113 8.70633 24.3886 8.8322C24.7659 8.95808 25.0777 9.22864 25.2555 9.58439L27.5852 14.2428C27.6741 14.4186 27.7272 14.6103 27.7415 14.8068C27.7559 15.0033 27.7311 15.2007 27.6687 15.3875ZM21.6265 18.3106L19.0287 16.2303C17.1968 17.7303 14.8709 17.9281 12.9434 16.6991C12.7537 16.5785 12.5937 16.4168 12.4749 16.226C12.3562 16.0352 12.2818 15.8202 12.2574 15.5968C12.2329 15.3735 12.2589 15.1474 12.3335 14.9355C12.4081 14.7235 12.5294 14.531 12.6884 14.3722C12.6906 14.3695 12.6931 14.367 12.6959 14.3647L16.9015 10.2856L16.0015 10.0288L11.2746 11.3797L8.70867 16.5106L13.3212 19.8059L18.7718 21.1681L21.6265 18.3106ZM23.3365 16.6006L20.7884 11.4988H17.8052L13.7515 15.4363C14.9384 16.1947 16.7993 16.4038 18.469 14.7209C18.5994 14.5895 18.7738 14.5109 18.9586 14.5004C19.1435 14.4898 19.3257 14.548 19.4702 14.6638L22.6962 17.2484L23.3365 16.6006Z" fill="white"/>
</svg>
