<svg width="32" height="32" viewBox="0 0 32 32" fill="none" xmlns="http://www.w3.org/2000/svg">
  <rect width="32" height="32" rx="8" fill="#3F444D"/>
  <path d="M16 6.25C14.0716 6.25 12.1866 6.82183 10.5832 7.89317C8.97982 8.96452 7.73013 10.4873 6.99218 12.2688C6.25422 14.0504 6.06114 16.0108 6.43735 17.9021C6.81355 19.7934 7.74215 21.5307 9.10571 22.8943C10.4693 24.2579 12.2066 25.1865 14.0979 25.5627C15.9892 25.9389 17.9496 25.7458 19.7312 25.0078C21.5127 24.2699 23.0355 23.0202 24.1068 21.4168C25.1782 19.8134 25.75 17.9284 25.75 16C25.7473 13.415 24.7192 10.9366 22.8913 9.10872C21.0634 7.28084 18.585 6.25273 16 6.25ZM16 22C15.7775 22 15.56 21.934 15.375 21.8104C15.19 21.6868 15.0458 21.5111 14.9606 21.3055C14.8755 21.1 14.8532 20.8738 14.8966 20.6555C14.94 20.4373 15.0472 20.2368 15.2045 20.0795C15.3618 19.9222 15.5623 19.815 15.7805 19.7716C15.9988 19.7282 16.225 19.7505 16.4305 19.8356C16.6361 19.9208 16.8118 20.065 16.9354 20.25C17.059 20.435 17.125 20.6525 17.125 20.875C17.125 21.1734 17.0065 21.4595 16.7955 21.6705C16.5845 21.8815 16.2984 22 16 22ZM16.75 17.4325V17.5C16.75 17.6989 16.671 17.8897 16.5303 18.0303C16.3897 18.171 16.1989 18.25 16 18.25C15.8011 18.25 15.6103 18.171 15.4697 18.0303C15.329 17.8897 15.25 17.6989 15.25 17.5V16.75C15.25 16.5511 15.329 16.3603 15.4697 16.2197C15.6103 16.079 15.8011 16 16 16C17.2403 16 18.25 15.1562 18.25 14.125C18.25 13.0938 17.2403 12.25 16 12.25C14.7597 12.25 13.75 13.0938 13.75 14.125V14.5C13.75 14.6989 13.671 14.8897 13.5303 15.0303C13.3897 15.171 13.1989 15.25 13 15.25C12.8011 15.25 12.6103 15.171 12.4697 15.0303C12.329 14.8897 12.25 14.6989 12.25 14.5V14.125C12.25 12.2641 13.9319 10.75 16 10.75C18.0681 10.75 19.75 12.2641 19.75 14.125C19.75 15.7544 18.46 17.1184 16.75 17.4325Z" fill="white"/>
</svg>
