<svg width="32" height="32" viewBox="0 0 32 32" fill="none" xmlns="http://www.w3.org/2000/svg">
  <rect width="32" height="32" rx="8" fill="#3F444D"/>
  <path d="M25 14.8312V23.4984C25 23.8962 24.842 24.2778 24.5607 24.5591C24.2794 24.8404 23.8978 24.9984 23.5 24.9984H19.75C19.3522 24.9984 18.9706 24.8404 18.6893 24.5591C18.408 24.2778 18.25 23.8962 18.25 23.4984V19.7484C18.25 19.5495 18.171 19.3587 18.0303 19.2181C17.8897 19.0774 17.6989 18.9984 17.5 18.9984H14.5C14.3011 18.9984 14.1103 19.0774 13.9697 19.2181C13.829 19.3587 13.75 19.5495 13.75 19.7484V23.4984C13.75 23.8962 13.592 24.2778 13.3107 24.5591C13.0294 24.8404 12.6478 24.9984 12.25 24.9984H8.5C8.10218 24.9984 7.72064 24.8404 7.43934 24.5591C7.15804 24.2778 7 23.8962 7 23.4984V14.8312C6.99997 14.6236 7.04303 14.4183 7.12646 14.2282C7.20989 14.0381 7.33187 13.8674 7.48469 13.7268L14.9847 6.65059L14.995 6.64028C15.2711 6.38916 15.631 6.25 16.0042 6.25C16.3775 6.25 16.7373 6.38916 17.0134 6.64028C17.0166 6.64395 17.0201 6.64739 17.0237 6.65059L24.5237 13.7268C24.675 13.8681 24.7954 14.0391 24.8774 14.2292C24.9594 14.4193 25.0011 14.6242 25 14.8312Z" fill="white"/>
</svg>
