<svg width="32" height="32" viewBox="0 0 32 32" fill="none" xmlns="http://www.w3.org/2000/svg">
  <rect width="32" height="32" rx="8" fill="#3F444D"/>
  <path d="M27.25 23.5005C27.25 23.6994 27.171 23.8901 27.0303 24.0308C26.8897 24.1715 26.6989 24.2505 26.5 24.2505H5.5C5.30109 24.2505 5.11032 24.1715 4.96967 24.0308C4.82902 23.8901 4.75 23.6994 4.75 23.5005C4.75 23.3016 4.82902 23.1108 4.96967 22.9701C5.11032 22.8295 5.30109 22.7505 5.5 22.7505H26.5C26.6989 22.7505 26.8897 22.8295 27.0303 22.9701C27.171 23.1108 27.25 23.3016 27.25 23.5005ZM5.52812 13.2048C5.48352 13.0476 5.49152 12.88 5.55093 12.7277C5.61033 12.5754 5.71787 12.4467 5.85719 12.3611L15.6072 6.3611C15.7253 6.28846 15.8613 6.25 16 6.25C16.1387 6.25 16.2747 6.28846 16.3928 6.3611L26.1428 12.3611C26.2822 12.4465 26.3898 12.5752 26.4493 12.7274C26.5088 12.8797 26.517 13.0472 26.4725 13.2045C26.428 13.3618 26.3334 13.5003 26.2029 13.5988C26.0725 13.6974 25.9135 13.7506 25.75 13.7505H23.5V19.7505H25C25.1989 19.7505 25.3897 19.8295 25.5303 19.9701C25.671 20.1108 25.75 20.3016 25.75 20.5005C25.75 20.6994 25.671 20.8901 25.5303 21.0308C25.3897 21.1715 25.1989 21.2505 25 21.2505H7C6.80109 21.2505 6.61032 21.1715 6.46967 21.0308C6.32902 20.8901 6.25 20.6994 6.25 20.5005C6.25 20.3016 6.32902 20.1108 6.46967 19.9701C6.61032 19.8295 6.80109 19.7505 7 19.7505H8.5V13.7505H6.25C6.08668 13.7505 5.9278 13.6973 5.79751 13.5988C5.66721 13.5003 5.57263 13.362 5.52812 13.2048ZM17.5 19.0005C17.5 19.1994 17.579 19.3901 17.7197 19.5308C17.8603 19.6715 18.0511 19.7505 18.25 19.7505C18.4489 19.7505 18.6397 19.6715 18.7803 19.5308C18.921 19.3901 19 19.1994 19 19.0005V14.5005C19 14.3016 18.921 14.1108 18.7803 13.9701C18.6397 13.8295 18.4489 13.7505 18.25 13.7505C18.0511 13.7505 17.8603 13.8295 17.7197 13.9701C17.579 14.1108 17.5 14.3016 17.5 14.5005V19.0005ZM13 19.0005C13 19.1994 13.079 19.3901 13.2197 19.5308C13.3603 19.6715 13.5511 19.7505 13.75 19.7505C13.9489 19.7505 14.1397 19.6715 14.2803 19.5308C14.421 19.3901 14.5 19.1994 14.5 19.0005V14.5005C14.5 14.3016 14.421 14.1108 14.2803 13.9701C14.1397 13.8295 13.9489 13.7505 13.75 13.7505C13.5511 13.7505 13.3603 13.8295 13.2197 13.9701C13.079 14.1108 13 14.3016 13 14.5005V19.0005Z" fill="white"/>
</svg>
