<svg width="269" height="269" viewBox="0 0 269 269" fill="none" xmlns="http://www.w3.org/2000/svg">
<rect width="269" height="269" rx="8" fill="#242529"/>
<g clip-path="url(#clip0_15741_285634)">
<path d="M58.0625 168.162L58.07 153.195L63.5154 153.197C64.5707 153.197 65.4442 153.373 66.1359 153.721C66.8276 154.07 67.3461 154.541 67.6893 155.132C68.0324 155.724 68.2046 156.39 68.2035 157.131C68.2035 157.754 68.0894 158.28 67.8614 158.705C67.6333 159.132 67.33 159.473 66.9502 159.728C66.5705 159.984 66.152 160.17 65.697 160.287V160.433C66.1908 160.458 66.6738 160.617 67.145 160.913C67.6172 161.208 68.0077 161.626 68.3175 162.166C68.6273 162.708 68.7822 163.365 68.7811 164.14C68.7811 164.906 68.6026 165.591 68.2465 166.197C67.8904 166.804 67.3418 167.283 66.6017 167.636C65.8605 167.989 64.9139 168.166 63.7628 168.164L58.0625 168.162ZM60.3076 166.226L63.5455 166.228C64.6202 166.228 65.3904 166.019 65.8551 165.601C66.3199 165.182 66.5522 164.659 66.5533 164.03C66.5533 163.558 66.435 163.124 66.1983 162.728C65.9616 162.333 65.6239 162.019 65.186 161.785C64.7482 161.551 64.2286 161.433 63.6284 161.433L60.3097 161.432L60.3076 166.226ZM60.3108 159.672L63.3164 159.673C63.8198 159.673 64.2738 159.576 64.6783 159.381C65.0828 159.187 65.4044 158.912 65.6443 158.559C65.8842 158.206 66.0036 157.788 66.0047 157.306C66.0047 156.688 65.7895 156.168 65.3592 155.749C64.9289 155.33 64.2684 155.12 63.3777 155.12L60.314 155.119L60.3108 159.672Z" fill="#FBE54D"/>
<path d="M78.2633 153.205L75.6718 153.203L70.3125 168.167L72.6942 168.169L74.0582 164.208L79.8694 164.211L81.2259 168.172L83.6075 168.174L78.2633 153.205ZM74.7123 162.307L76.9111 155.922H77.0273L79.2153 162.311L74.7123 162.307Z" fill="#FBE54D"/>
<path d="M97.7567 153.214L97.7492 168.181L95.687 168.179L88.1332 157.199H87.9955L87.9901 168.175L85.7461 168.174L85.7536 153.207L87.8298 153.208L95.3901 164.203H95.5278L95.5332 153.211L97.7567 153.214Z" fill="#FBE54D"/>
<path d="M101.02 168.182L101.027 153.215L103.271 153.216L103.268 160.363H103.45L109.69 153.218L112.515 153.219L106.514 159.955L112.53 168.186L109.829 168.185L105.026 161.496L103.268 163.527L103.266 168.183L101.02 168.182Z" fill="#FBE54D"/>
<path d="M116.853 153.224L116.846 168.191L114.602 168.19L114.609 153.223L116.853 153.224Z" fill="#FBE54D"/>
<path d="M120.12 153.227L122.842 153.228L127.571 164.864H127.746L132.485 153.232L135.208 153.233L135.201 168.2L133.066 168.199L133.072 157.369H132.934L128.543 168.175L126.771 168.174L122.391 157.356H122.253L122.248 168.194L120.113 168.192L120.12 153.227Z" fill="#FBE54D"/>
<path d="M151.391 160.723C151.39 162.321 151.1 163.694 150.518 164.84C149.937 165.987 149.141 166.869 148.132 167.484C147.122 168.1 145.976 168.408 144.694 168.406C143.406 168.405 142.257 168.097 141.249 167.481C140.24 166.864 139.445 165.98 138.865 164.83C138.285 163.681 137.995 162.309 137.996 160.715C137.997 159.117 138.288 157.744 138.87 156.598C139.45 155.451 140.247 154.57 141.256 153.954C142.265 153.338 143.414 153.03 144.701 153.031C145.983 153.031 147.13 153.341 148.139 153.957C149.148 154.574 149.943 155.455 150.523 156.604C151.103 157.752 151.392 159.126 151.391 160.723ZM149.17 160.722C149.171 159.504 148.976 158.477 148.587 157.641C148.197 156.805 147.665 156.172 146.99 155.74C146.316 155.309 145.552 155.093 144.7 155.093C143.844 155.093 143.078 155.308 142.406 155.738C141.732 156.169 141.201 156.802 140.811 157.637C140.422 158.472 140.226 159.499 140.225 160.717C140.225 161.935 140.419 162.962 140.808 163.797C141.197 164.633 141.728 165.267 142.401 165.699C143.074 166.13 143.838 166.346 144.696 166.346C145.548 166.346 146.312 166.131 146.987 165.701C147.663 165.27 148.195 164.637 148.586 163.802C148.974 162.967 149.169 161.941 149.17 160.722Z" fill="white"/>
<path d="M166.186 153.245L166.179 168.212L164.117 168.211L156.563 157.23H156.425L156.42 168.206L154.176 168.205L154.183 153.238L156.259 153.239L163.82 164.234H163.957L163.963 153.243L166.186 153.245Z" fill="white"/>
<path d="M169.445 168.213L169.453 153.246L171.697 153.247L171.69 166.27L178.429 166.273L178.428 168.217L169.445 168.213Z" fill="white"/>
<path d="M183.236 153.255L183.228 168.222L180.984 168.221L180.992 153.254L183.236 153.255Z" fill="white"/>
<path d="M198.507 153.264L198.499 168.231L196.437 168.23L188.883 157.25H188.745L188.74 168.226L186.496 168.225L186.504 153.258L188.58 153.259L196.14 164.254H196.278L196.283 153.262L198.507 153.264Z" fill="white"/>
<path d="M201.766 168.233L201.773 153.266L211.097 153.27L211.095 155.213L204.016 155.21L204.014 159.77L210.607 159.774L210.606 161.711L204.013 161.707L204.011 166.289L211.177 166.292L211.176 168.236L201.766 168.233Z" fill="white"/>
<path d="M211.202 143.083L173.838 100L122.011 123.615V128.018L119.34 131.578V118.455L110.185 118.494L109.876 126.202L85.3302 115.083L58 143.032L58.8767 143.04L84.8461 121.857L103.254 143.067H136.277L173.848 107.154L204.461 139.702L152.526 143.075L211.202 143.083Z" fill="#FBE54D"/>
</g>
<defs>
<clipPath id="clip0_15741_285634">
<rect width="153" height="69" fill="white" transform="translate(58 100)"/>
</clipPath>
</defs>
</svg>
