<svg width="295" height="383" viewBox="0 0 295 383" fill="none" xmlns="http://www.w3.org/2000/svg">
<circle cx="52" cy="324" r="52" fill="#242529"/>
<circle cx="177" cy="92" r="52" fill="#242529"/>
<circle cx="243" cy="331" r="52" fill="#242529"/>
<circle cx="48" cy="40" r="40" fill="#242529"/>
<circle cx="123" cy="206" r="32" fill="#242529"/>
<path d="M100 168L63 86" stroke="#333535" stroke-width="2" stroke-linecap="round"/>
<path d="M142 173L154.454 144.001" stroke="#333535" stroke-width="2" stroke-linecap="round"/>
<path d="M88 272L100.454 243.001" stroke="#333535" stroke-width="2" stroke-linecap="round"/>
<path d="M154 235L201 286" stroke="#333535" stroke-width="2" stroke-linecap="round"/>
<circle cx="190.5" cy="242.5" r="12.5" fill="#F5F5F5"/>
<path d="M185.231 242.373L186.971 237.898L187.861 238.245L186.122 242.719L185.231 242.373ZM184.138 239.883L184.483 238.996L188.958 240.736L188.613 241.623L184.138 239.883ZM191.08 240.105L193.976 241.231C194.545 241.453 194.912 241.755 195.078 242.14C195.246 242.525 195.226 242.987 195.019 243.527L194.326 245.307L193.32 244.916L194.013 243.135C194.115 242.865 194.135 242.644 194.072 242.473C194.009 242.301 193.848 242.165 193.587 242.063L191.754 241.35L190.109 245.58L189.103 245.189L191.08 240.105ZM190.887 245.883L192.218 242.46L193.224 242.852L192.225 245.42L194.059 246.133C194.315 246.232 194.524 246.243 194.687 246.164C194.853 246.083 194.989 245.905 195.097 245.63L196.413 242.244L197.419 242.635L196.103 246.021C195.893 246.559 195.597 246.914 195.213 247.085C194.829 247.255 194.353 247.23 193.786 247.01L190.887 245.883Z" fill="#161616"/>
<circle cx="126.5" cy="146.5" r="12.5" fill="#F5F5F5"/>
<path d="M121.231 146.373L122.971 141.898L123.861 142.245L122.122 146.719L121.231 146.373ZM120.138 143.883L120.483 142.996L124.958 144.736L124.613 145.623L120.138 143.883ZM127.08 144.105L129.976 145.231C130.545 145.453 130.912 145.755 131.078 146.14C131.246 146.525 131.226 146.987 131.019 147.527L130.326 149.307L129.32 148.916L130.013 147.135C130.115 146.865 130.135 146.644 130.072 146.473C130.009 146.301 129.848 146.165 129.587 146.063L127.754 145.35L126.109 149.58L125.103 149.189L127.08 144.105ZM126.887 149.883L128.218 146.46L129.224 146.852L128.225 149.42L130.059 150.133C130.315 150.232 130.524 150.243 130.687 150.164C130.853 150.083 130.989 149.905 131.097 149.63L132.413 146.244L133.419 146.635L132.103 150.021C131.893 150.559 131.597 150.914 131.213 151.085C130.829 151.255 130.353 151.23 129.786 151.01L126.887 149.883Z" fill="#161616"/>
<circle cx="59.5" cy="125.5" r="12.5" fill="#F5F5F5"/>
<path d="M54.2313 125.373L55.9711 120.898L56.8614 121.245L55.1217 125.719L54.2313 125.373ZM53.1382 122.883L53.483 121.996L57.9579 123.736L57.613 124.623L53.1382 122.883ZM60.0795 123.105L62.9756 124.231C63.5449 124.453 63.9123 124.755 64.0778 125.14C64.2455 125.525 64.2258 125.987 64.0187 126.527L63.3264 128.307L62.3202 127.916L63.0125 126.135C63.115 125.865 63.1348 125.644 63.072 125.473C63.0093 125.301 62.8477 125.165 62.5873 125.063L60.7537 124.35L59.1092 128.58L58.103 128.189L60.0795 123.105ZM59.887 128.883L61.2175 125.46L62.2237 125.852L61.2252 128.42L63.0588 129.133C63.3147 129.232 63.5241 129.243 63.6869 129.164C63.8527 129.083 63.9893 128.905 64.0965 128.63L65.4129 125.244L66.4191 125.635L65.1027 129.021C64.8934 129.559 64.5968 129.914 64.2128 130.085C63.8289 130.255 63.3534 130.23 62.7864 130.01L59.887 128.883Z" fill="#161616"/>
<circle cx="72.5" cy="253.5" r="12.5" fill="#F5F5F5"/>
<path d="M67.2313 253.373L68.9711 248.898L69.8614 249.245L68.1217 253.719L67.2313 253.373ZM66.1382 250.883L66.483 249.996L70.9579 251.736L70.613 252.623L66.1382 250.883ZM73.0795 251.105L75.9756 252.231C76.5449 252.453 76.9123 252.755 77.0778 253.14C77.2455 253.525 77.2258 253.987 77.0187 254.527L76.3264 256.307L75.3202 255.916L76.0125 254.135C76.115 253.865 76.1348 253.644 76.072 253.473C76.0093 253.301 75.8477 253.165 75.5873 253.063L73.7537 252.35L72.1092 256.58L71.103 256.189L73.0795 251.105ZM72.887 256.883L74.2175 253.46L75.2237 253.852L74.2252 256.42L76.0588 257.133C76.3147 257.232 76.5241 257.243 76.6869 257.164C76.8527 257.083 76.9893 256.905 77.0965 256.63L78.4129 253.244L79.4191 253.635L78.1027 257.021C77.8934 257.559 77.5968 257.914 77.2128 258.085C76.8289 258.255 76.3534 258.23 75.7864 258.01L72.887 256.883Z" fill="#161616"/>
<path d="M55.4208 46.3387C55.4946 46.4518 55.5365 46.5828 55.542 46.7178C55.5475 46.8528 55.5164 46.9868 55.4521 47.1056C55.3878 47.2244 55.2925 47.3236 55.1765 47.3927C55.0604 47.4619 54.9278 47.4984 54.7927 47.4984H40.9608C40.8257 47.4984 40.6932 47.4619 40.5771 47.3927C40.461 47.3236 40.3658 47.2244 40.3015 47.1056C40.2371 46.9868 40.2061 46.8528 40.2116 46.7178C40.2171 46.5828 40.2589 46.4518 40.3327 46.3387C41.3884 44.7137 42.9413 43.4735 44.7596 42.8034C43.7544 42.1342 42.9913 41.1593 42.583 40.0228C42.1747 38.8863 42.1431 37.6487 42.4926 36.4928C42.8422 35.3369 43.5544 34.3242 44.5241 33.6045C45.4937 32.8847 46.6692 32.4961 47.8768 32.4961C49.0844 32.4961 50.2599 32.8847 51.2295 33.6045C52.1991 34.3242 52.9114 35.3369 53.2609 36.4928C53.6105 37.6487 53.5788 38.8863 53.1706 40.0228C52.7623 41.1593 51.9992 42.1342 50.994 42.8034C52.8123 43.4735 54.3651 44.7137 55.4208 46.3387ZM63.6624 46.3246C62.6064 44.7064 61.057 43.4717 59.244 42.8034C60.4306 42.004 61.2681 40.7825 61.5859 39.3874C61.9037 37.9924 61.6779 36.5287 60.9545 35.2942C60.2312 34.0598 59.0646 33.1473 57.6922 32.7427C56.3198 32.3381 54.8448 32.4716 53.5674 33.1162C53.5186 33.1414 53.4759 33.1771 53.4423 33.2206C53.4088 33.2642 53.3852 33.3146 53.3733 33.3682C53.3614 33.4219 53.3615 33.4775 53.3735 33.5312C53.3855 33.5848 53.4091 33.6352 53.4427 33.6787C54.3926 34.8635 54.9381 36.3214 54.9993 37.8387C55.0605 39.356 54.6343 40.853 53.783 42.1106C53.728 42.1927 53.7077 42.2933 53.7265 42.3904C53.7453 42.4875 53.8016 42.5733 53.8833 42.629C54.9932 43.4036 55.9434 44.385 56.6818 45.5193C56.9796 45.9754 57.1012 46.5242 57.024 47.0634C57.0153 47.117 57.0183 47.1719 57.033 47.2242C57.0476 47.2766 57.0734 47.3251 57.1086 47.3665C57.1438 47.4078 57.1876 47.4411 57.2369 47.4638C57.2863 47.4866 57.34 47.4984 57.3943 47.4984H63.0474C63.2126 47.4984 63.3731 47.444 63.5041 47.3434C63.6352 47.2429 63.7294 47.102 63.7721 46.9424C63.7982 46.8375 63.8019 46.7283 63.783 46.6219C63.7641 46.5154 63.723 46.4141 63.6624 46.3246Z" fill="white"/>
<path d="M180.421 98.3387C180.495 98.4518 180.537 98.5828 180.542 98.7178C180.548 98.8528 180.516 98.9868 180.452 99.1056C180.388 99.2244 180.293 99.3236 180.176 99.3927C180.06 99.4619 179.928 99.4984 179.793 99.4984H165.961C165.826 99.4984 165.693 99.4619 165.577 99.3927C165.461 99.3236 165.366 99.2244 165.301 99.1056C165.237 98.9868 165.206 98.8528 165.212 98.7178C165.217 98.5828 165.259 98.4518 165.333 98.3387C166.388 96.7137 167.941 95.4735 169.76 94.8034C168.754 94.1342 167.991 93.1593 167.583 92.0228C167.175 90.8863 167.143 89.6487 167.493 88.4928C167.842 87.3369 168.554 86.3242 169.524 85.6045C170.494 84.8847 171.669 84.4961 172.877 84.4961C174.084 84.4961 175.26 84.8847 176.229 85.6045C177.199 86.3242 177.911 87.3369 178.261 88.4928C178.611 89.6487 178.579 90.8863 178.171 92.0228C177.762 93.1593 176.999 94.1342 175.994 94.8034C177.812 95.4735 179.365 96.7137 180.421 98.3387ZM188.662 98.3246C187.606 96.7064 186.057 95.4717 184.244 94.8034C185.431 94.004 186.268 92.7825 186.586 91.3874C186.904 89.9924 186.678 88.5287 185.955 87.2942C185.231 86.0598 184.065 85.1473 182.692 84.7427C181.32 84.3381 179.845 84.4716 178.567 85.1162C178.519 85.1414 178.476 85.1771 178.442 85.2206C178.409 85.2642 178.385 85.3146 178.373 85.3682C178.361 85.4219 178.361 85.4775 178.373 85.5312C178.385 85.5848 178.409 85.6352 178.443 85.6787C179.393 86.8635 179.938 88.3214 179.999 89.8387C180.061 91.356 179.634 92.853 178.783 94.1106C178.728 94.1927 178.708 94.2933 178.726 94.3904C178.745 94.4875 178.802 94.5733 178.883 94.629C179.993 95.4036 180.943 96.385 181.682 97.5193C181.98 97.9754 182.101 98.5242 182.024 99.0634C182.015 99.117 182.018 99.1719 182.033 99.2242C182.048 99.2766 182.073 99.3251 182.109 99.3665C182.144 99.4078 182.188 99.4411 182.237 99.4638C182.286 99.4866 182.34 99.4984 182.394 99.4984H188.047C188.213 99.4984 188.373 99.444 188.504 99.3434C188.635 99.2429 188.729 99.102 188.772 98.9424C188.798 98.8375 188.802 98.7283 188.783 98.6219C188.764 98.5154 188.723 98.4141 188.662 98.3246Z" fill="white"/>
<path d="M246.421 337.339C246.495 337.452 246.537 337.583 246.542 337.718C246.548 337.853 246.516 337.987 246.452 338.106C246.388 338.224 246.293 338.324 246.176 338.393C246.06 338.462 245.928 338.498 245.793 338.498H231.961C231.826 338.498 231.693 338.462 231.577 338.393C231.461 338.324 231.366 338.224 231.301 338.106C231.237 337.987 231.206 337.853 231.212 337.718C231.217 337.583 231.259 337.452 231.333 337.339C232.388 335.714 233.941 334.474 235.76 333.803C234.754 333.134 233.991 332.159 233.583 331.023C233.175 329.886 233.143 328.649 233.493 327.493C233.842 326.337 234.554 325.324 235.524 324.604C236.494 323.885 237.669 323.496 238.877 323.496C240.084 323.496 241.26 323.885 242.229 324.604C243.199 325.324 243.911 326.337 244.261 327.493C244.611 328.649 244.579 329.886 244.171 331.023C243.762 332.159 242.999 333.134 241.994 333.803C243.812 334.474 245.365 335.714 246.421 337.339ZM254.662 337.325C253.606 335.706 252.057 334.472 250.244 333.803C251.431 333.004 252.268 331.783 252.586 330.387C252.904 328.992 252.678 327.529 251.955 326.294C251.231 325.06 250.065 324.147 248.692 323.743C247.32 323.338 245.845 323.472 244.567 324.116C244.519 324.141 244.476 324.177 244.442 324.221C244.409 324.264 244.385 324.315 244.373 324.368C244.361 324.422 244.361 324.478 244.373 324.531C244.385 324.585 244.409 324.635 244.443 324.679C245.393 325.864 245.938 327.321 245.999 328.839C246.061 330.356 245.634 331.853 244.783 333.111C244.728 333.193 244.708 333.293 244.726 333.39C244.745 333.488 244.802 333.573 244.883 333.629C245.993 334.404 246.943 335.385 247.682 336.519C247.98 336.975 248.101 337.524 248.024 338.063C248.015 338.117 248.018 338.172 248.033 338.224C248.048 338.277 248.073 338.325 248.109 338.366C248.144 338.408 248.188 338.441 248.237 338.464C248.286 338.487 248.34 338.498 248.394 338.498H254.047C254.213 338.498 254.373 338.444 254.504 338.343C254.635 338.243 254.729 338.102 254.772 337.942C254.798 337.838 254.802 337.728 254.783 337.622C254.764 337.515 254.723 337.414 254.662 337.325Z" fill="white"/>
<path d="M55.4208 331.339C55.4946 331.452 55.5365 331.583 55.542 331.718C55.5475 331.853 55.5164 331.987 55.4521 332.106C55.3878 332.224 55.2925 332.324 55.1765 332.393C55.0604 332.462 54.9278 332.498 54.7927 332.498H40.9608C40.8257 332.498 40.6932 332.462 40.5771 332.393C40.461 332.324 40.3658 332.224 40.3015 332.106C40.2371 331.987 40.2061 331.853 40.2116 331.718C40.2171 331.583 40.2589 331.452 40.3327 331.339C41.3884 329.714 42.9413 328.474 44.7596 327.803C43.7544 327.134 42.9913 326.159 42.583 325.023C42.1747 323.886 42.1431 322.649 42.4926 321.493C42.8422 320.337 43.5544 319.324 44.5241 318.604C45.4937 317.885 46.6692 317.496 47.8768 317.496C49.0844 317.496 50.2599 317.885 51.2295 318.604C52.1991 319.324 52.9114 320.337 53.2609 321.493C53.6105 322.649 53.5788 323.886 53.1706 325.023C52.7623 326.159 51.9992 327.134 50.994 327.803C52.8123 328.474 54.3651 329.714 55.4208 331.339ZM63.6624 331.325C62.6064 329.706 61.057 328.472 59.244 327.803C60.4306 327.004 61.2681 325.783 61.5859 324.387C61.9037 322.992 61.6779 321.529 60.9545 320.294C60.2312 319.06 59.0646 318.147 57.6922 317.743C56.3198 317.338 54.8448 317.472 53.5674 318.116C53.5186 318.141 53.4759 318.177 53.4423 318.221C53.4088 318.264 53.3852 318.315 53.3733 318.368C53.3614 318.422 53.3615 318.478 53.3735 318.531C53.3855 318.585 53.4091 318.635 53.4427 318.679C54.3926 319.864 54.9381 321.321 54.9993 322.839C55.0605 324.356 54.6343 325.853 53.783 327.111C53.728 327.193 53.7077 327.293 53.7265 327.39C53.7453 327.488 53.8016 327.573 53.8833 327.629C54.9932 328.404 55.9434 329.385 56.6818 330.519C56.9796 330.975 57.1012 331.524 57.024 332.063C57.0153 332.117 57.0183 332.172 57.033 332.224C57.0476 332.277 57.0734 332.325 57.1086 332.366C57.1438 332.408 57.1876 332.441 57.2369 332.464C57.2863 332.487 57.34 332.498 57.3943 332.498H63.0474C63.2126 332.498 63.3731 332.444 63.5041 332.343C63.6352 332.243 63.7294 332.102 63.7721 331.942C63.7982 331.838 63.8019 331.728 63.783 331.622C63.7641 331.515 63.723 331.414 63.6624 331.325Z" fill="white"/>
<path d="M135.865 215.499C135.777 215.652 135.651 215.778 135.499 215.866C135.347 215.953 135.175 216 134.999 215.999H110.999C110.824 215.999 110.651 215.953 110.499 215.865C110.347 215.777 110.221 215.651 110.134 215.499C110.046 215.347 110 215.175 110 214.999C110 214.824 110.046 214.651 110.134 214.499C112.038 211.208 114.971 208.848 118.395 207.729C116.702 206.721 115.386 205.185 114.65 203.357C113.914 201.528 113.799 199.509 114.321 197.609C114.844 195.708 115.976 194.032 117.544 192.838C119.112 191.643 121.028 190.996 122.999 190.996C124.97 190.996 126.886 191.643 128.454 192.838C130.022 194.032 131.154 195.708 131.677 197.609C132.199 199.509 132.084 201.528 131.348 203.357C130.612 205.185 129.296 206.721 127.603 207.729C131.026 208.848 133.96 211.208 135.864 214.499C135.952 214.651 135.998 214.824 135.999 214.999C135.999 215.175 135.953 215.347 135.865 215.499Z" fill="#FBE54D"/>
</svg>
