<svg width="329" height="348" viewBox="0 0 329 348" fill="none" xmlns="http://www.w3.org/2000/svg">
<circle cx="108" cy="161" r="40" fill="#242529"/>
<circle cx="108" cy="161" r="40" fill="#242529"/>
<circle cx="271.5" cy="234.5" r="57.5" fill="#242529"/>
<circle cx="202" cy="32" r="32" fill="#242529"/>
<circle cx="52" cy="296" r="52" fill="#242529"/>
<path d="M168.156 63L142.001 114.535" stroke="#333535" stroke-width="2" stroke-linecap="round"/>
<path d="M81.1562 213L72.001 234" stroke="#333535" stroke-width="2" stroke-linecap="round"/>
<path d="M214 206L151 181.001" stroke="#333535" stroke-width="2" stroke-linecap="round"/>
<circle cx="189.5" cy="174.5" r="12.5" fill="#F5F5F5"/>
<path d="M184.231 174.373L185.971 169.898L186.861 170.245L185.122 174.719L184.231 174.373ZM183.138 171.883L183.483 170.996L187.958 172.736L187.613 173.623L183.138 171.883ZM190.08 172.105L192.976 173.231C193.545 173.453 193.912 173.755 194.078 174.14C194.246 174.525 194.226 174.987 194.019 175.527L193.326 177.307L192.32 176.916L193.013 175.135C193.115 174.865 193.135 174.644 193.072 174.473C193.009 174.301 192.848 174.165 192.587 174.063L190.754 173.35L189.109 177.58L188.103 177.189L190.08 172.105ZM189.887 177.883L191.218 174.46L192.224 174.852L191.225 177.42L193.059 178.133C193.315 178.232 193.524 178.243 193.687 178.164C193.853 178.083 193.989 177.905 194.097 177.63L195.413 174.244L196.419 174.635L195.103 178.021C194.893 178.559 194.597 178.914 194.213 179.085C193.829 179.255 193.353 179.23 192.786 179.01L189.887 177.883Z" fill="#161616"/>
<circle cx="176.5" cy="96.5" r="12.5" fill="#F5F5F5"/>
<path d="M171.231 96.3733L172.971 91.8984L173.861 92.2446L172.122 96.7194L171.231 96.3733ZM170.138 93.8832L170.483 92.9962L174.958 94.7359L174.613 95.623L170.138 93.8832ZM177.08 94.1053L179.976 95.2313C180.545 95.4526 180.912 95.7555 181.078 96.1399C181.246 96.5251 181.226 96.9874 181.019 97.5266L180.326 99.3073L179.32 98.9161L180.013 97.1354C180.115 96.8654 180.135 96.6445 180.072 96.4728C180.009 96.301 179.848 96.1646 179.587 96.0633L177.754 95.3504L176.109 99.5804L175.103 99.1892L177.08 94.1053ZM176.887 99.8828L178.218 96.4604L179.224 96.8516L178.225 99.42L180.059 100.133C180.315 100.232 180.524 100.243 180.687 100.164C180.853 100.083 180.989 99.9054 181.097 99.6295L182.413 96.2436L183.419 96.6348L182.103 100.021C181.893 100.559 181.597 100.914 181.213 101.085C180.829 101.255 180.353 101.23 179.786 101.01L176.887 99.8828Z" fill="#161616"/>
<circle cx="99.5" cy="231.5" r="12.5" fill="#F5F5F5"/>
<path d="M94.2313 231.373L95.9711 226.898L96.8614 227.245L95.1217 231.719L94.2313 231.373ZM93.1382 228.883L93.483 227.996L97.9579 229.736L97.613 230.623L93.1382 228.883ZM100.08 229.105L102.976 230.231C103.545 230.453 103.912 230.755 104.078 231.14C104.246 231.525 104.226 231.987 104.019 232.527L103.326 234.307L102.32 233.916L103.013 232.135C103.115 231.865 103.135 231.644 103.072 231.473C103.009 231.301 102.848 231.165 102.587 231.063L100.754 230.35L99.1092 234.58L98.103 234.189L100.08 229.105ZM99.887 234.883L101.218 231.46L102.224 231.852L101.225 234.42L103.059 235.133C103.315 235.232 103.524 235.243 103.687 235.164C103.853 235.083 103.989 234.905 104.097 234.63L105.413 231.244L106.419 231.635L105.103 235.021C104.893 235.559 104.597 235.914 104.213 236.085C103.829 236.255 103.353 236.23 102.786 236.01L99.887 234.883Z" fill="#161616"/>
<path d="M120.865 171.499C120.777 171.652 120.651 171.778 120.499 171.866C120.347 171.953 120.175 172 119.999 171.999H95.999C95.8235 171.999 95.6512 171.953 95.4993 171.865C95.3475 171.777 95.2214 171.651 95.1337 171.499C95.0461 171.347 95 171.175 95 170.999C95 170.824 95.0462 170.651 95.134 170.499C97.0377 167.208 99.9715 164.848 103.395 163.729C101.702 162.721 100.386 161.185 99.65 159.357C98.914 157.528 98.7986 155.509 99.3214 153.609C99.8442 151.708 100.976 150.032 102.544 148.838C104.112 147.643 106.028 146.996 107.999 146.996C109.97 146.996 111.886 147.643 113.454 148.838C115.022 150.032 116.154 151.708 116.677 153.609C117.199 155.509 117.084 157.528 116.348 159.357C115.612 161.185 114.296 162.721 112.603 163.729C116.026 164.848 118.96 167.208 120.864 170.499C120.952 170.651 120.998 170.824 120.999 170.999C120.999 171.175 120.953 171.347 120.865 171.499Z" fill="#FBE54D"/>
<path d="M205.421 38.3387C205.495 38.4518 205.537 38.5828 205.542 38.7178C205.548 38.8528 205.516 38.9868 205.452 39.1056C205.388 39.2244 205.293 39.3236 205.176 39.3927C205.06 39.4619 204.928 39.4984 204.793 39.4984H190.961C190.826 39.4984 190.693 39.4619 190.577 39.3927C190.461 39.3236 190.366 39.2244 190.301 39.1056C190.237 38.9868 190.206 38.8528 190.212 38.7178C190.217 38.5828 190.259 38.4518 190.333 38.3387C191.388 36.7137 192.941 35.4735 194.76 34.8034C193.754 34.1342 192.991 33.1593 192.583 32.0228C192.175 30.8863 192.143 29.6487 192.493 28.4928C192.842 27.3369 193.554 26.3242 194.524 25.6045C195.494 24.8847 196.669 24.4961 197.877 24.4961C199.084 24.4961 200.26 24.8847 201.229 25.6045C202.199 26.3242 202.911 27.3369 203.261 28.4928C203.611 29.6487 203.579 30.8863 203.171 32.0228C202.762 33.1593 201.999 34.1342 200.994 34.8034C202.812 35.4735 204.365 36.7137 205.421 38.3387ZM213.662 38.3246C212.606 36.7064 211.057 35.4717 209.244 34.8034C210.431 34.004 211.268 32.7825 211.586 31.3874C211.904 29.9924 211.678 28.5287 210.955 27.2942C210.231 26.0598 209.065 25.1473 207.692 24.7427C206.32 24.3381 204.845 24.4716 203.567 25.1162C203.519 25.1414 203.476 25.1771 203.442 25.2206C203.409 25.2642 203.385 25.3146 203.373 25.3682C203.361 25.4219 203.361 25.4775 203.373 25.5312C203.385 25.5848 203.409 25.6352 203.443 25.6787C204.393 26.8635 204.938 28.3214 204.999 29.8387C205.061 31.356 204.634 32.853 203.783 34.1106C203.728 34.1927 203.708 34.2933 203.726 34.3904C203.745 34.4875 203.802 34.5733 203.883 34.629C204.993 35.4036 205.943 36.385 206.682 37.5193C206.98 37.9754 207.101 38.5242 207.024 39.0634C207.015 39.117 207.018 39.1719 207.033 39.2242C207.048 39.2766 207.073 39.3251 207.109 39.3665C207.144 39.4078 207.188 39.4411 207.237 39.4638C207.286 39.4866 207.34 39.4984 207.394 39.4984H213.047C213.213 39.4984 213.373 39.444 213.504 39.3434C213.635 39.2429 213.729 39.102 213.772 38.9424C213.798 38.8375 213.802 38.7283 213.783 38.6219C213.764 38.5154 213.723 38.4141 213.662 38.3246Z" fill="white"/>
<path d="M275.421 240.339C275.495 240.452 275.537 240.583 275.542 240.718C275.548 240.853 275.516 240.987 275.452 241.106C275.388 241.224 275.293 241.324 275.176 241.393C275.06 241.462 274.928 241.498 274.793 241.498H260.961C260.826 241.498 260.693 241.462 260.577 241.393C260.461 241.324 260.366 241.224 260.301 241.106C260.237 240.987 260.206 240.853 260.212 240.718C260.217 240.583 260.259 240.452 260.333 240.339C261.388 238.714 262.941 237.474 264.76 236.803C263.754 236.134 262.991 235.159 262.583 234.023C262.175 232.886 262.143 231.649 262.493 230.493C262.842 229.337 263.554 228.324 264.524 227.604C265.494 226.885 266.669 226.496 267.877 226.496C269.084 226.496 270.26 226.885 271.229 227.604C272.199 228.324 272.911 229.337 273.261 230.493C273.611 231.649 273.579 232.886 273.171 234.023C272.762 235.159 271.999 236.134 270.994 236.803C272.812 237.474 274.365 238.714 275.421 240.339ZM283.662 240.325C282.606 238.706 281.057 237.472 279.244 236.803C280.431 236.004 281.268 234.783 281.586 233.387C281.904 231.992 281.678 230.529 280.955 229.294C280.231 228.06 279.065 227.147 277.692 226.743C276.32 226.338 274.845 226.472 273.567 227.116C273.519 227.141 273.476 227.177 273.442 227.221C273.409 227.264 273.385 227.315 273.373 227.368C273.361 227.422 273.361 227.478 273.373 227.531C273.385 227.585 273.409 227.635 273.443 227.679C274.393 228.864 274.938 230.321 274.999 231.839C275.061 233.356 274.634 234.853 273.783 236.111C273.728 236.193 273.708 236.293 273.726 236.39C273.745 236.488 273.802 236.573 273.883 236.629C274.993 237.404 275.943 238.385 276.682 239.519C276.98 239.975 277.101 240.524 277.024 241.063C277.015 241.117 277.018 241.172 277.033 241.224C277.048 241.277 277.073 241.325 277.109 241.366C277.144 241.408 277.188 241.441 277.237 241.464C277.286 241.487 277.34 241.498 277.394 241.498H283.047C283.213 241.498 283.373 241.444 283.504 241.343C283.635 241.243 283.729 241.102 283.772 240.942C283.798 240.838 283.802 240.728 283.783 240.622C283.764 240.515 283.723 240.414 283.662 240.325Z" fill="white"/>
<path d="M55.4208 302.339C55.4946 302.452 55.5365 302.583 55.542 302.718C55.5475 302.853 55.5164 302.987 55.4521 303.106C55.3878 303.224 55.2925 303.324 55.1765 303.393C55.0604 303.462 54.9278 303.498 54.7927 303.498H40.9608C40.8257 303.498 40.6932 303.462 40.5771 303.393C40.461 303.324 40.3658 303.224 40.3015 303.106C40.2371 302.987 40.2061 302.853 40.2116 302.718C40.2171 302.583 40.2589 302.452 40.3327 302.339C41.3884 300.714 42.9413 299.474 44.7596 298.803C43.7544 298.134 42.9913 297.159 42.583 296.023C42.1747 294.886 42.1431 293.649 42.4926 292.493C42.8422 291.337 43.5544 290.324 44.5241 289.604C45.4937 288.885 46.6692 288.496 47.8768 288.496C49.0844 288.496 50.2599 288.885 51.2295 289.604C52.1991 290.324 52.9114 291.337 53.2609 292.493C53.6105 293.649 53.5788 294.886 53.1706 296.023C52.7623 297.159 51.9992 298.134 50.994 298.803C52.8123 299.474 54.3651 300.714 55.4208 302.339ZM63.6624 302.325C62.6064 300.706 61.057 299.472 59.244 298.803C60.4306 298.004 61.2681 296.783 61.5859 295.387C61.9037 293.992 61.6779 292.529 60.9545 291.294C60.2312 290.06 59.0646 289.147 57.6922 288.743C56.3198 288.338 54.8448 288.472 53.5674 289.116C53.5186 289.141 53.4759 289.177 53.4423 289.221C53.4088 289.264 53.3852 289.315 53.3733 289.368C53.3614 289.422 53.3615 289.478 53.3735 289.531C53.3855 289.585 53.4091 289.635 53.4427 289.679C54.3926 290.864 54.9381 292.321 54.9993 293.839C55.0605 295.356 54.6343 296.853 53.783 298.111C53.728 298.193 53.7077 298.293 53.7265 298.39C53.7453 298.488 53.8016 298.573 53.8833 298.629C54.9932 299.404 55.9434 300.385 56.6818 301.519C56.9796 301.975 57.1012 302.524 57.024 303.063C57.0153 303.117 57.0183 303.172 57.033 303.224C57.0476 303.277 57.0734 303.325 57.1086 303.366C57.1438 303.408 57.1876 303.441 57.2369 303.464C57.2863 303.487 57.34 303.498 57.3943 303.498H63.0474C63.2126 303.498 63.3731 303.444 63.5041 303.343C63.6352 303.243 63.7294 303.102 63.7721 302.942C63.7982 302.838 63.8019 302.728 63.783 302.622C63.7641 302.515 63.723 302.414 63.6624 302.325Z" fill="white"/>
</svg>
