<svg width="18" height="18" viewBox="0 0 18 18" fill="none" xmlns="http://www.w3.org/2000/svg">
<path d="M11.5637 13.7569C11.619 13.8418 11.6504 13.9401 11.6546 14.0413C11.6587 14.1425 11.6354 14.243 11.5871 14.3321C11.5389 14.4212 11.4674 14.4956 11.3804 14.5475C11.2933 14.5993 11.1939 14.6267 11.0926 14.6267H0.718681C0.617358 14.6267 0.517919 14.5993 0.430871 14.5475C0.343823 14.4956 0.272398 14.4212 0.224141 14.3321C0.175885 14.243 0.15259 14.1425 0.156717 14.0413C0.160844 13.9401 0.19224 13.8418 0.247588 13.7569C1.03938 12.5382 2.20403 11.6081 3.56774 11.1055C2.81385 10.6036 2.24149 9.87238 1.9353 9.02003C1.6291 8.16768 1.60534 7.23942 1.86751 6.37252C2.12968 5.50562 2.66388 4.7461 3.3911 4.20628C4.11832 3.66646 4.99996 3.375 5.90563 3.375C6.81131 3.375 7.69295 3.66646 8.42017 4.20628C9.14739 4.7461 9.68158 5.50562 9.94376 6.37252C10.2059 7.23942 10.1822 8.16768 9.87597 9.02003C9.56978 9.87238 8.99742 10.6036 8.24352 11.1055C9.60724 11.6081 10.7719 12.5382 11.5637 13.7569ZM17.7449 13.7464C16.9528 12.5328 15.7908 11.6067 14.431 11.1055C15.321 10.5059 15.9491 9.58981 16.1875 8.54352C16.4258 7.49723 16.2565 6.39943 15.714 5.47359C15.1714 4.54775 14.2965 3.86344 13.2672 3.55997C12.2379 3.25649 11.1316 3.35666 10.1736 3.84007C10.137 3.85899 10.1049 3.88572 10.0798 3.91839C10.0546 3.95106 10.037 3.98886 10.0281 4.02911C10.0191 4.06936 10.0192 4.11108 10.0282 4.15132C10.0371 4.19156 10.0549 4.22932 10.0801 4.26195C10.7925 5.15056 11.2016 6.24394 11.2475 7.38193C11.2935 8.51992 10.9738 9.64272 10.3353 10.5859C10.2941 10.6475 10.2788 10.7229 10.2929 10.7958C10.307 10.8686 10.3493 10.9329 10.4106 10.9747C11.243 11.5557 11.9556 12.2917 12.5094 13.1424C12.7327 13.4845 12.824 13.8961 12.766 14.3005C12.7595 14.3407 12.7618 14.3818 12.7728 14.4211C12.7837 14.4603 12.8031 14.4967 12.8295 14.5278C12.8559 14.5588 12.8888 14.5837 12.9257 14.6008C12.9627 14.6179 13.003 14.6267 13.0438 14.6267H17.2836C17.4075 14.6268 17.5279 14.5859 17.6262 14.5105C17.7244 14.4351 17.7951 14.3294 17.8271 14.2098C17.8467 14.1311 17.8495 14.0492 17.8353 13.9693C17.8211 13.8895 17.7903 13.8135 17.7449 13.7464Z" fill="white"/>
</svg>
