<svg width="36" height="36" viewBox="0 0 36 36" fill="none" xmlns="http://www.w3.org/2000/svg">
<circle cx="18" cy="18" r="18" fill="#35373F"/>
<path d="M25.8573 23.6269H24.7512V15.7519C24.7512 15.4536 24.6327 15.1674 24.4217 14.9564C24.2108 14.7455 23.9246 14.6269 23.6262 14.6269H20.5325C20.4579 14.6269 20.3864 14.6566 20.3336 14.7093C20.2809 14.762 20.2512 14.8336 20.2512 14.9082V23.6269H19.1262V11.2808C19.1281 11.1055 19.0901 10.9322 19.015 10.7738C18.94 10.6154 18.8299 10.4762 18.6931 10.3667C18.5066 10.2213 18.2791 10.1384 18.0428 10.1297C17.8065 10.121 17.5735 10.1869 17.3769 10.3182L11.7519 14.0644C11.5976 14.1674 11.4711 14.3069 11.3838 14.4705C11.2964 14.6342 11.2509 14.8169 11.2512 15.0024V23.6269H10.1452C9.99986 23.6248 9.85908 23.6778 9.7512 23.7752C9.64332 23.8727 9.57634 24.0073 9.56374 24.1522C9.55863 24.2291 9.56939 24.3063 9.59536 24.3789C9.62134 24.4515 9.66196 24.518 9.71471 24.5742C9.76746 24.6305 9.83121 24.6753 9.90201 24.7058C9.9728 24.7364 10.0491 24.7521 10.1262 24.7519H25.8762C25.9533 24.7521 26.0297 24.7364 26.1005 24.7058C26.1713 24.6753 26.235 24.6305 26.2878 24.5742C26.3405 24.518 26.3811 24.4515 26.4071 24.3789C26.4331 24.3063 26.4438 24.2291 26.4387 24.1522C26.4261 24.0073 26.3592 23.8727 26.2513 23.7752C26.1434 23.6778 26.0026 23.6248 25.8573 23.6269ZM14.345 21.9394C14.3452 22.0165 14.3295 22.0929 14.2989 22.1637C14.2683 22.2345 14.2235 22.2982 14.1673 22.351C14.111 22.4037 14.0445 22.4443 13.9719 22.4703C13.8993 22.4963 13.8222 22.507 13.7452 22.5019C13.6003 22.4893 13.4655 22.4222 13.368 22.3142C13.2706 22.2062 13.2177 22.0652 13.22 21.9197V20.8334C13.218 20.6881 13.271 20.5474 13.3685 20.4396C13.4659 20.3317 13.6005 20.2647 13.7452 20.2519C13.8222 20.2468 13.8993 20.2576 13.9719 20.2836C14.0445 20.3095 14.111 20.3502 14.1673 20.4029C14.2235 20.4557 14.2683 20.5194 14.2989 20.5902C14.3295 20.661 14.3452 20.7373 14.345 20.8144V21.9394ZM14.345 18.0019C14.3452 18.079 14.3295 18.1554 14.2989 18.2262C14.2683 18.297 14.2235 18.3607 14.1673 18.4135C14.111 18.4662 14.0445 18.5068 13.9719 18.5328C13.8993 18.5588 13.8222 18.5695 13.7452 18.5644C13.6003 18.5517 13.4656 18.4845 13.3682 18.3765C13.2708 18.2685 13.2178 18.1277 13.22 17.9822V16.8959C13.218 16.7506 13.271 16.6099 13.3685 16.5021C13.4659 16.3942 13.6005 16.3272 13.7452 16.3144C13.8222 16.3093 13.8993 16.3201 13.9719 16.3461C14.0445 16.372 14.111 16.4127 14.1673 16.4654C14.2235 16.5182 14.2683 16.5819 14.2989 16.6527C14.3295 16.7235 14.3452 16.7998 14.345 16.8769V18.0019ZM17.1575 21.9394C17.1577 22.0165 17.142 22.0929 17.1114 22.1637C17.0808 22.2345 17.036 22.2982 16.9798 22.351C16.9235 22.4037 16.857 22.4443 16.7844 22.4703C16.7118 22.4963 16.6347 22.507 16.5577 22.5019C16.413 22.4893 16.2784 22.4225 16.181 22.3147C16.0836 22.207 16.0305 22.0664 16.0325 21.9211V20.8334C16.0307 20.6882 16.0838 20.5477 16.1812 20.44C16.2786 20.3323 16.4131 20.2654 16.5577 20.2526C16.6347 20.2475 16.7118 20.2583 16.7844 20.2843C16.857 20.3102 16.9235 20.3509 16.9798 20.4036C17.036 20.4564 17.0808 20.5201 17.1114 20.5909C17.142 20.6617 17.1577 20.738 17.1575 20.8151V21.9394ZM17.1575 18.0019C17.1577 18.079 17.142 18.1554 17.1114 18.2262C17.0808 18.297 17.036 18.3607 16.9798 18.4135C16.9235 18.4662 16.857 18.5068 16.7844 18.5328C16.7118 18.5588 16.6347 18.5695 16.5577 18.5644C16.4131 18.5517 16.2786 18.4847 16.1812 18.3771C16.0838 18.2694 16.0307 18.1288 16.0325 17.9836V16.8959C16.0307 16.7507 16.0838 16.6102 16.1812 16.5025C16.2786 16.3948 16.4131 16.3279 16.5577 16.3151C16.6347 16.31 16.7118 16.3208 16.7844 16.3468C16.857 16.3727 16.9235 16.4134 16.9798 16.4661C17.036 16.5189 17.0808 16.5826 17.1114 16.6534C17.142 16.7242 17.1577 16.8005 17.1575 16.8776V18.0019Z" fill="white"/>
</svg>
