<svg width="24" height="24" viewBox="0 0 24 24" fill="none" xmlns="http://www.w3.org/2000/svg">
<path d="M22.5 19.501H21V9.00098C21 8.60315 20.842 8.22162 20.5607 7.94032C20.2794 7.65901 19.8978 7.50098 19.5 7.50098H13.5V3.00098C13.5002 2.72935 13.4266 2.46277 13.2871 2.22969C13.1476 1.99662 12.9474 1.8058 12.708 1.67759C12.4685 1.54939 12.1987 1.48861 11.9274 1.50176C11.6561 1.5149 11.3935 1.60147 11.1675 1.75223L3.6675 6.75098C3.46176 6.88824 3.29315 7.07426 3.17669 7.29246C3.06023 7.51066 2.99953 7.75427 3 8.0016V19.501H1.5C1.30109 19.501 1.11032 19.58 0.96967 19.7206C0.829018 19.8613 0.75 20.0521 0.75 20.251C0.75 20.4499 0.829018 20.6407 0.96967 20.7813C1.11032 20.922 1.30109 21.001 1.5 21.001H22.5C22.6989 21.001 22.8897 20.922 23.0303 20.7813C23.171 20.6407 23.25 20.4499 23.25 20.251C23.25 20.0521 23.171 19.8613 23.0303 19.7206C22.8897 19.58 22.6989 19.501 22.5 19.501ZM19.5 9.00098V19.501H13.5V9.00098H19.5ZM4.5 8.0016L12 3.00098V19.501H4.5V8.0016ZM10.5 10.501V12.001C10.5 12.1999 10.421 12.3907 10.2803 12.5313C10.1397 12.672 9.94891 12.751 9.75 12.751C9.55109 12.751 9.36032 12.672 9.21967 12.5313C9.07902 12.3907 9 12.1999 9 12.001V10.501C9 10.3021 9.07902 10.1113 9.21967 9.97065C9.36032 9.82999 9.55109 9.75098 9.75 9.75098C9.94891 9.75098 10.1397 9.82999 10.2803 9.97065C10.421 10.1113 10.5 10.3021 10.5 10.501ZM7.5 10.501V12.001C7.5 12.1999 7.42098 12.3907 7.28033 12.5313C7.13968 12.672 6.94891 12.751 6.75 12.751C6.55109 12.751 6.36032 12.672 6.21967 12.5313C6.07902 12.3907 6 12.1999 6 12.001V10.501C6 10.3021 6.07902 10.1113 6.21967 9.97065C6.36032 9.82999 6.55109 9.75098 6.75 9.75098C6.94891 9.75098 7.13968 9.82999 7.28033 9.97065C7.42098 10.1113 7.5 10.3021 7.5 10.501ZM7.5 15.751V17.251C7.5 17.4499 7.42098 17.6407 7.28033 17.7813C7.13968 17.922 6.94891 18.001 6.75 18.001C6.55109 18.001 6.36032 17.922 6.21967 17.7813C6.07902 17.6407 6 17.4499 6 17.251V15.751C6 15.5521 6.07902 15.3613 6.21967 15.2206C6.36032 15.08 6.55109 15.001 6.75 15.001C6.94891 15.001 7.13968 15.08 7.28033 15.2206C7.42098 15.3613 7.5 15.5521 7.5 15.751ZM10.5 15.751V17.251C10.5 17.4499 10.421 17.6407 10.2803 17.7813C10.1397 17.922 9.94891 18.001 9.75 18.001C9.55109 18.001 9.36032 17.922 9.21967 17.7813C9.07902 17.6407 9 17.4499 9 17.251V15.751C9 15.5521 9.07902 15.3613 9.21967 15.2206C9.36032 15.08 9.55109 15.001 9.75 15.001C9.94891 15.001 10.1397 15.08 10.2803 15.2206C10.421 15.3613 10.5 15.5521 10.5 15.751Z" fill="white"/>
</svg>
