<svg width="68" height="68" viewBox="0 0 68 68" fill="none" xmlns="http://www.w3.org/2000/svg">
<circle cx="34" cy="34" r="34" fill="white"/>
<path d="M40 39.5C40 39.7967 39.912 40.0867 39.7472 40.3334C39.5824 40.58 39.3481 40.7723 39.074 40.8858C38.7999 40.9993 38.4983 41.0291 38.2074 40.9712C37.9164 40.9133 37.6491 40.7704 37.4393 40.5607C37.2296 40.3509 37.0867 40.0836 37.0288 39.7926C36.9709 39.5017 37.0007 39.2001 37.1142 38.926C37.2277 38.6519 37.42 38.4176 37.6666 38.2528C37.9133 38.088 38.2033 38 38.5 38C38.8978 38 39.2794 38.158 39.5607 38.4393C39.842 38.7206 40 39.1022 40 39.5ZM29.5 30C29.7967 30 30.0867 29.912 30.3334 29.7472C30.58 29.5824 30.7723 29.3481 30.8858 29.074C30.9994 28.7999 31.0291 28.4983 30.9712 28.2074C30.9133 27.9164 30.7704 27.6491 30.5607 27.4393C30.3509 27.2296 30.0836 27.0867 29.7926 27.0288C29.5017 26.9709 29.2001 27.0006 28.926 27.1142C28.6519 27.2277 28.4176 27.42 28.2528 27.6666C28.088 27.9133 28 28.2033 28 28.5C28 28.8978 28.158 29.2794 28.4393 29.5607C28.7206 29.842 29.1022 30 29.5 30ZM46 24V44C46 44.5304 45.7893 45.0391 45.4142 45.4142C45.0391 45.7893 44.5304 46 44 46H24C23.4696 46 22.9609 45.7893 22.5858 45.4142C22.2107 45.0391 22 44.5304 22 44V24C22 23.4696 22.2107 22.9609 22.5858 22.5858C22.9609 22.2107 23.4696 22 24 22H44C44.5304 22 45.0391 22.2107 45.4142 22.5858C45.7893 22.9609 46 23.4696 46 24ZM26 28.5C26 29.1922 26.2053 29.8689 26.5899 30.4445C26.9744 31.0201 27.5211 31.4687 28.1606 31.7336C28.8001 31.9985 29.5039 32.0678 30.1828 31.9327C30.8617 31.7977 31.4854 31.4644 31.9749 30.9749C32.4644 30.4854 32.7977 29.8618 32.9327 29.1828C33.0678 28.5039 32.9985 27.8001 32.7336 27.1606C32.4687 26.5211 32.0201 25.9744 31.4445 25.5899C30.8689 25.2053 30.1922 25 29.5 25C28.5717 25 27.6815 25.3687 27.0251 26.0251C26.3687 26.6815 26 27.5717 26 28.5ZM42 39.5C42 38.8078 41.7947 38.1311 41.4101 37.5555C41.0256 36.9799 40.4789 36.5313 39.8394 36.2664C39.1999 36.0015 38.4961 35.9322 37.8172 36.0673C37.1383 36.2023 36.5146 36.5356 36.0251 37.0251C35.5356 37.5146 35.2023 38.1383 35.0673 38.8172C34.9322 39.4961 35.0015 40.1999 35.2664 40.8394C35.5313 41.4789 35.9799 42.0256 36.5555 42.4101C37.1311 42.7947 37.8078 43 38.5 43C39.4283 43 40.3185 42.6313 40.9749 41.9749C41.6313 41.3185 42 40.4283 42 39.5ZM41.7075 26.2925C41.6146 26.1995 41.5043 26.1258 41.3829 26.0754C41.2615 26.0251 41.1314 25.9992 41 25.9992C40.8686 25.9992 40.7385 26.0251 40.6171 26.0754C40.4957 26.1258 40.3854 26.1995 40.2925 26.2925L26.2925 40.2925C26.1049 40.4801 25.9994 40.7346 25.9994 41C25.9994 41.2654 26.1049 41.5199 26.2925 41.7075C26.4801 41.8951 26.7346 42.0006 27 42.0006C27.2654 42.0006 27.5199 41.8951 27.7075 41.7075L41.7075 27.7075C41.8005 27.6146 41.8742 27.5043 41.9246 27.3829C41.9749 27.2615 42.0008 27.1314 42.0008 27C42.0008 26.8686 41.9749 26.7385 41.9246 26.6171C41.8742 26.4957 41.8005 26.3854 41.7075 26.2925Z" fill="#242529"/>
</svg>
