<svg width="24" height="24" viewBox="10 10 16 15.5" fill="none" xmlns="http://www.w3.org/2000/svg">
<path d="M23.1166 12.7891C21.7552 11.441 19.916 10.6855 18 10.6875H17.9248C15.9984 10.7073 14.1577 11.4865 12.8026 12.8557C11.4475 14.2249 10.6874 16.0736 10.6875 18C10.6875 21.0234 12.5564 23.5589 15.5644 24.6213C15.9036 24.7409 16.2666 24.7775 16.6229 24.7278C16.9792 24.6782 17.3184 24.5439 17.6121 24.3361C17.9057 24.1283 18.1453 23.8531 18.3107 23.5337C18.476 23.2142 18.5624 22.8597 18.5625 22.5C18.5625 22.2016 18.681 21.9155 18.892 21.7045C19.103 21.4935 19.3891 21.375 19.6875 21.375H22.9366C23.447 21.3775 23.9429 21.2053 24.3419 20.8871C24.741 20.5689 25.0192 20.1238 25.1304 19.6256C25.2561 19.0721 25.3172 18.5058 25.3125 17.9381C25.3053 16.9773 25.1076 16.0274 24.7306 15.1436C24.3537 14.2597 23.8051 13.4594 23.1166 12.7891ZM14.9062 20.8125C14.7394 20.8125 14.5762 20.763 14.4375 20.6703C14.2987 20.5776 14.1906 20.4458 14.1267 20.2916C14.0629 20.1375 14.0462 19.9678 14.0787 19.8041C14.1113 19.6405 14.1916 19.4901 14.3096 19.3721C14.4276 19.2541 14.578 19.1738 14.7416 19.1412C14.9053 19.1087 15.075 19.1254 15.2291 19.1892C15.3833 19.2531 15.5151 19.3612 15.6078 19.5C15.7005 19.6387 15.75 19.8019 15.75 19.9688C15.75 20.1925 15.6611 20.4071 15.5029 20.5654C15.3446 20.7236 15.13 20.8125 14.9062 20.8125ZM14.9062 16.875C14.7394 16.875 14.5762 16.8255 14.4375 16.7328C14.2987 16.6401 14.1906 16.5083 14.1267 16.3541C14.0629 16.2 14.0462 16.0303 14.0787 15.8666C14.1113 15.703 14.1916 15.5526 14.3096 15.4346C14.4276 15.3166 14.578 15.2363 14.7416 15.2037C14.9053 15.1712 15.075 15.1879 15.2291 15.2517C15.3833 15.3156 15.5151 15.4237 15.6078 15.5625C15.7005 15.7012 15.75 15.8644 15.75 16.0313C15.75 16.255 15.6611 16.4696 15.5029 16.6279C15.3446 16.7861 15.13 16.875 14.9062 16.875ZM18 15.1875C17.8331 15.1875 17.67 15.138 17.5312 15.0453C17.3925 14.9526 17.2843 14.8208 17.2205 14.6666C17.1566 14.5125 17.1399 14.3428 17.1725 14.1791C17.205 14.0155 17.2854 13.8651 17.4034 13.7471C17.5214 13.6291 17.6717 13.5488 17.8354 13.5162C17.9991 13.4837 18.1687 13.5004 18.3229 13.5642C18.4771 13.6281 18.6088 13.7362 18.7016 13.875C18.7943 14.0137 18.8438 14.1769 18.8438 14.3438C18.8438 14.5675 18.7549 14.7821 18.5966 14.9404C18.4384 15.0986 18.2238 15.1875 18 15.1875ZM21.0938 16.875C20.9269 16.875 20.7637 16.8255 20.625 16.7328C20.4862 16.6401 20.3781 16.5083 20.3142 16.3541C20.2504 16.2 20.2337 16.0303 20.2662 15.8666C20.2988 15.703 20.3791 15.5526 20.4971 15.4346C20.6151 15.3166 20.7655 15.2363 20.9291 15.2037C21.0928 15.1712 21.2625 15.1879 21.4166 15.2517C21.5708 15.3156 21.7026 15.4237 21.7953 15.5625C21.888 15.7012 21.9375 15.8644 21.9375 16.0313C21.9375 16.255 21.8486 16.4696 21.6904 16.6279C21.5321 16.7861 21.3175 16.875 21.0938 16.875Z" fill="white"/>
</svg>
