<svg width="18" height="18" viewBox="0 0 18 18" fill="none" xmlns="http://www.w3.org/2000/svg">
<path d="M15.5067 6.09188L3.1275 2.295C2.95995 2.24613 2.78333 2.23692 2.6116 2.26808C2.43987 2.29925 2.27775 2.36995 2.13806 2.47458C1.99837 2.57921 1.88494 2.71491 1.80674 2.87094C1.72854 3.02697 1.68772 3.19906 1.6875 3.37359V13.4986C1.6875 13.797 1.80603 14.0831 2.017 14.2941C2.22798 14.5051 2.51413 14.6236 2.8125 14.6236C2.92008 14.6236 3.02711 14.6082 3.13031 14.5779L9 12.7765V13.4986C9 13.797 9.11853 14.0831 9.3295 14.2941C9.54048 14.5051 9.82663 14.6236 10.125 14.6236H12.375C12.6734 14.6236 12.9595 14.5051 13.1705 14.2941C13.3815 14.0831 13.5 13.797 13.5 13.4986V11.3963L15.5067 10.781C15.739 10.7112 15.9427 10.5687 16.0877 10.3743C16.2328 10.18 16.3116 9.94422 16.3125 9.70172V7.17047C16.3115 6.92808 16.2326 6.69244 16.0875 6.49826C15.9425 6.30408 15.7389 6.16162 15.5067 6.09188ZM12.375 13.4986H10.125V12.4313L12.375 11.7408V13.4986ZM15.1875 9.70172H15.1798L10.125 11.2542V5.61727L15.1798 7.17047H15.1875V9.70172Z" fill="white"/>
</svg>
