<svg width="18" height="18" viewBox="0 0 18 18" fill="none" xmlns="http://www.w3.org/2000/svg">
<path d="M16.2 15.4103C16.2629 15.4939 16.3012 15.5933 16.3107 15.6975C16.3202 15.8016 16.3005 15.9064 16.2537 15.9999C16.207 16.0935 16.1351 16.1722 16.0461 16.2271C15.9571 16.2821 15.8546 16.3111 15.75 16.311H2.25C2.14554 16.311 2.04314 16.2819 1.95428 16.227C1.86542 16.1721 1.7936 16.0935 1.74688 16.0001C1.70017 15.9067 1.68039 15.8021 1.68977 15.698C1.69915 15.594 1.73732 15.4946 1.8 15.411C2.29808 14.7432 2.96228 14.2175 3.72656 13.886C3.30763 13.5036 3.01408 13.0035 2.88446 12.4513C2.75485 11.8991 2.79521 11.3207 3.00026 10.7918C3.2053 10.263 3.56545 9.80853 4.03343 9.48806C4.50141 9.16758 5.05535 8.99609 5.62254 8.99609C6.18973 8.99609 6.74367 9.16758 7.21165 9.48806C7.67963 9.80853 8.03977 10.263 8.24482 10.7918C8.44987 11.3207 8.49023 11.8991 8.36061 12.4513C8.231 13.0035 7.93745 13.5036 7.51852 13.886C8.06992 14.1243 8.571 14.4653 8.99508 14.8907C9.41916 14.4653 9.92024 14.1243 10.4716 13.886C10.0527 13.5036 9.75916 13.0035 9.62954 12.4513C9.49992 11.8991 9.54029 11.3207 9.74533 10.7918C9.95038 10.263 10.3105 9.80853 10.7785 9.48806C11.2465 9.16758 11.8004 8.99609 12.3676 8.99609C12.9348 8.99609 13.4887 9.16758 13.9567 9.48806C14.4247 9.80853 14.7849 10.263 14.9899 10.7918C15.1949 11.3207 15.2353 11.8991 15.1057 12.4513C14.9761 13.0035 14.6825 13.5036 14.2636 13.886C15.0314 14.2157 15.6992 14.7414 16.2 15.4103ZM1.9125 8.88603C1.9716 8.93035 2.03884 8.9626 2.1104 8.98093C2.18196 8.99927 2.25642 9.00333 2.32955 8.99288C2.40268 8.98243 2.47303 8.95769 2.53659 8.92005C2.60015 8.88241 2.65568 8.83263 2.7 8.77353C3.04057 8.31944 3.48219 7.95088 3.98988 7.69703C4.49757 7.44319 5.05739 7.31103 5.625 7.31103C6.19262 7.31103 6.75243 7.44319 7.26012 7.69703C7.76781 7.95088 8.20943 8.31944 8.55 8.77353C8.6024 8.84339 8.67034 8.90009 8.74844 8.93915C8.82655 8.9782 8.91267 8.99853 9 8.99853C9.08733 8.99853 9.17345 8.9782 9.25156 8.93915C9.32966 8.90009 9.3976 8.84339 9.45 8.77353C9.79057 8.31944 10.2322 7.95088 10.7399 7.69703C11.2476 7.44319 11.8074 7.31103 12.375 7.31103C12.9426 7.31103 13.5024 7.44319 14.0101 7.69703C14.5178 7.95088 14.9594 8.31944 15.3 8.77353C15.3444 8.83263 15.3999 8.88241 15.4635 8.92002C15.5271 8.95764 15.5975 8.98236 15.6707 8.99278C15.7439 9.00319 15.8184 8.99909 15.8899 8.98072C15.9615 8.96234 16.0288 8.93005 16.0879 8.88568C16.1469 8.84131 16.1967 8.78574 16.2343 8.72214C16.272 8.65853 16.2967 8.58814 16.3071 8.51498C16.3175 8.44182 16.3134 8.36733 16.295 8.29575C16.2767 8.22418 16.2444 8.15692 16.2 8.09783C15.7019 7.43023 15.0377 6.90468 14.2734 6.57345C14.6924 6.1911 14.9859 5.69101 15.1155 5.13882C15.2452 4.58664 15.2048 4.00817 14.9997 3.47934C14.7947 2.95051 14.4345 2.49603 13.9666 2.17556C13.4986 1.85508 12.9447 1.68359 12.3775 1.68359C11.8103 1.68359 11.2563 1.85508 10.7884 2.17556C10.3204 2.49603 9.96023 2.95051 9.75518 3.47934C9.55013 4.00817 9.50977 4.58664 9.63939 5.13882C9.769 5.69101 10.0625 6.1911 10.4815 6.57345C9.93008 6.8118 9.429 7.15277 9.00492 7.57822C8.58084 7.15277 8.07976 6.8118 7.52836 6.57345C7.9473 6.1911 8.24084 5.69101 8.37046 5.13882C8.50008 4.58664 8.45971 4.00817 8.25467 3.47934C8.04962 2.95051 7.68947 2.49603 7.22149 2.17556C6.75351 1.85508 6.19957 1.68359 5.63238 1.68359C5.06519 1.68359 4.51125 1.85508 4.04327 2.17556C3.5753 2.49603 3.21515 2.95051 3.0101 3.47934C2.80505 4.00817 2.76469 4.58664 2.89431 5.13882C3.02393 5.69101 3.31747 6.1911 3.73641 6.57345C2.96854 6.9035 2.3008 7.4294 1.8 8.09853C1.75568 8.15763 1.72343 8.22487 1.7051 8.29643C1.68677 8.36799 1.68271 8.44246 1.69315 8.51558C1.7036 8.58871 1.72835 8.65906 1.76598 8.72262C1.80362 8.78619 1.85341 8.84171 1.9125 8.88603Z" fill="white"/>
</svg>
