<svg width="18" height="18" viewBox="0 0 18 18" fill="none" xmlns="http://www.w3.org/2000/svg">
<path d="M15.75 3.375V5.34375C15.75 5.49293 15.6907 5.63601 15.5852 5.7415C15.4798 5.84699 15.3367 5.90625 15.1875 5.90625C15.0383 5.90625 14.8952 5.84699 14.7898 5.7415C14.6843 5.63601 14.625 5.49293 14.625 5.34375V3.375H12.6562C12.5071 3.375 12.364 3.31574 12.2585 3.21025C12.153 3.10476 12.0938 2.96168 12.0938 2.8125C12.0938 2.66332 12.153 2.52024 12.2585 2.41475C12.364 2.30926 12.5071 2.25 12.6562 2.25H14.625C14.9234 2.25 15.2095 2.36853 15.4205 2.5795C15.6315 2.79048 15.75 3.07663 15.75 3.375ZM15.1875 12.0938C15.0383 12.0938 14.8952 12.153 14.7898 12.2585C14.6843 12.364 14.625 12.5071 14.625 12.6562V14.625H12.6562C12.5071 14.625 12.364 14.6843 12.2585 14.7898C12.153 14.8952 12.0938 15.0383 12.0938 15.1875C12.0938 15.3367 12.153 15.4798 12.2585 15.5852C12.364 15.6907 12.5071 15.75 12.6562 15.75H14.625C14.9234 15.75 15.2095 15.6315 15.4205 15.4205C15.6315 15.2095 15.75 14.9234 15.75 14.625V12.6562C15.75 12.5071 15.6907 12.364 15.5852 12.2585C15.4798 12.153 15.3367 12.0938 15.1875 12.0938ZM5.34375 14.625H3.375V12.6562C3.375 12.5071 3.31574 12.364 3.21025 12.2585C3.10476 12.153 2.96168 12.0938 2.8125 12.0938C2.66332 12.0938 2.52024 12.153 2.41475 12.2585C2.30926 12.364 2.25 12.5071 2.25 12.6562V14.625C2.25 14.9234 2.36853 15.2095 2.5795 15.4205C2.79048 15.6315 3.07663 15.75 3.375 15.75H5.34375C5.49293 15.75 5.63601 15.6907 5.7415 15.5852C5.84699 15.4798 5.90625 15.3367 5.90625 15.1875C5.90625 15.0383 5.84699 14.8952 5.7415 14.7898C5.63601 14.6843 5.49293 14.625 5.34375 14.625ZM2.8125 5.90625C2.96168 5.90625 3.10476 5.84699 3.21025 5.7415C3.31574 5.63601 3.375 5.49293 3.375 5.34375V3.375H5.34375C5.49293 3.375 5.63601 3.31574 5.7415 3.21025C5.84699 3.10476 5.90625 2.96168 5.90625 2.8125C5.90625 2.66332 5.84699 2.52024 5.7415 2.41475C5.63601 2.30926 5.49293 2.25 5.34375 2.25H3.375C3.07663 2.25 2.79048 2.36853 2.5795 2.5795C2.36853 2.79048 2.25 3.07663 2.25 3.375V5.34375C2.25 5.49293 2.30926 5.63601 2.41475 5.7415C2.52024 5.84699 2.66332 5.90625 2.8125 5.90625ZM7.10156 9.94992C6.33746 10.2814 5.67331 10.8069 5.175 11.4743C5.11212 11.5579 5.07378 11.6573 5.06429 11.7615C5.0548 11.8656 5.07454 11.9703 5.12128 12.0639C5.16802 12.1575 5.23992 12.2361 5.3289 12.2911C5.41788 12.346 5.52042 12.3751 5.625 12.375H12.375C12.4796 12.3751 12.5821 12.346 12.6711 12.2911C12.7601 12.2361 12.832 12.1575 12.8787 12.0639C12.9255 11.9703 12.9452 11.8656 12.9357 11.7615C12.9262 11.6573 12.8879 11.5579 12.825 11.4743C12.3267 10.8069 11.6625 10.2814 10.8984 9.94992C11.3173 9.56752 11.6107 9.06742 11.7403 8.51526C11.8698 7.9631 11.8294 7.38468 11.6243 6.85591C11.4192 6.32713 11.0591 5.87271 10.5911 5.55228C10.1232 5.23185 9.56926 5.06038 9.00211 5.06038C8.43496 5.06038 7.88106 5.23185 7.4131 5.55228C6.94514 5.87271 6.58499 6.32713 6.37991 6.85591C6.17484 7.38468 6.13441 7.9631 6.26395 8.51526C6.39349 9.06742 6.68694 9.56752 7.10578 9.94992H7.10156Z" fill="white"/>
</svg>
